<?xml version="1.0" encoding="UTF-8"?>
<svg version="1.1" viewBox="0 0 866 866" width="24" height="24" xmlns="http://www.w3.org/2000/svg">
<path transform="translate(424,154)" d="m0 0h8l11 6 11 8 16 11 18 12 12 9 3 7-1 9-4 7-1 3 12 8 11 8 14 10 10 7 45 30 13 8 9 6 9 5 13 8 11 6 10 6 16 8 18 10 14 8 10 5 19 11 22 13 12 8 14 10 13 10 14 12 10 9 8 7 18 18 9 11 3 6 1 9-4 11-6 8-10 7-13 8-15 6-15 4-7 1h-20l-11-4-7-6-14-22-6-8-8-10-20-20-14-11-13-10-15-10-16-10-38-22-43-25-18-11-22-13-24-15-40-26-7-4-3 11-6 25-2 21v22l2 14 7 13v3h19l15 4 4 4-10 5-5 4-12-3-4 1 5 14 3 16v18l-2 10-5 10-11 12-8 8-8 7-10 10-8 7-10 10-8 7-11 11-8 7-9 9-8 7-11 11-8 7-12 12-8 7-10 10-8 7-10 10-8 7-10 7-9 3-5 1h-20l-15-3-16-5-20-9-16-9-15-10-14-10-11-9-14-12-8-8-8-7-14-15-9-10-11-14-9-11-9-14-8-13-9-16-7-15-6-15-6-24-1-18 1-12 5-14 8-10 8-8 8-7 9-9 8-7 12-12 8-7 10-10 8-7 10-10 8-7 10-10 8-7 11-11 8-7 10-10 8-7 11-11 8-7 7-7 14-7 4-1h23l19 5 20 8 14 8 9 5 14 9 11 8 5-2 14-11 12-11 3-2-1-4-4-7v-8l5-14 6-11 10-14 10-10 6-4 3-1h9l10 5 2-5 8-7z" fill="currentColor"/>
<path transform="translate(180,265)" d="m0 0 2 1 2 18-22 24-12 12-7 8-15 16-11 12-4 5 10-8 14-11 14-12 9-7 16-13 11-9h3l6 15 8 17 10 16 4 7 3 5-1 4-10 10-7 8-16 17-11 11-7 8-15 16-9 10 4-3 13-10 11-9 50-40 9-6 7 8 9 11 7 8 11 12 10 10 6 7 8 7 12 11 3 2-1 4-13 15-9 11-9 10-9 11-12 14-11 14-12 14-6 8 8-6 26-20 9-7 16-12 11-9 12-9 9-7 15-11 5 2 9 6 17 10 18 8v4l-9 11-9 10-9 11-9 10-9 11-7 8 8-6 10-8 14-11 8-7 14-11 14-12 3-2 11 1 5 1-4 5-8 7-14 14-8 7-10 10-8 7-11 11-8 7-11 11-8 7-11 11-8 7-10 10-8 7-11 11-10 8-7 3-7 1h-10l-15-3-10-3v-4l12-14 10-11 9-11 10-11 9-11 10-11 9-11 11-13 5-6-8 6-16 15-9 7-7 7-11 9-12 11-11 9-14 13-11 9-7 6-5-1-16-9-10-7-19-14-13-11-9-9-8-7-10-10 1-4 10-11 9-11 11-12 9-11 11-12 9-11h-1l-10 8-44 36-10 8-6 5h-3l-7-9-8-10-9-13-9-14-7-12 2-4 17-17 7-8 10-10 7-8 18-18 7-8 16-17v-2l-8 7-14 11-17 14-20 16-11 9-9 7-12 10-4-4-6-15-4-16-1-8 7-8 23-23 7-8 8-8 1-2-14 10-5 3-13 9-11 7-2-1 4-10 13-13 8-7 10-10 8-7 11-11 8-7 10-10 8-7 10-10 8-7 12-12 8-7 10-10 8-7z" fill="currentColor"/>
<path transform="translate(483,239)" d="m0 0 4 1 16 12 13 9 11 8 16 11 33 22 13 8 9 6 9 5 27 16 18 10 11 6 18 10 14 7 9 5 17 10 22 13 15 10 11 8 14 11 14 12 12 11 8 7 10 10 7 8 2 2v7l-5 6-15 10-15 6-11 3-7 1h-16l-7-4-6-10-5-9-9-12-13-15-13-12-10-9-10-8-15-11-15-10-45-27-11-6-21-12-19-11-14-9-11-6-15-9-11-7-18-11-18-12-14-9-11-7 3-9 8-14 8-12z" fill="currentColor"/>
<path transform="translate(427,172)" d="m0 0 5 2 11 7 10 7 16 11 14 10 1 4-10 11-8 11-10 14-11 19-10 22-7 22-4 17-3 23-1 9-1 1-15-1-16-3-18-6-17-8-11-7-12-9-10-9-8-7-10-12v-2l19-12 16-12 17-14 14-12 19-19 9-11 10-12 7-11 10-16z" fill="currentColor"/>
<path transform="translate(218,235)" d="m0 0h13l17 4 24 10 14 8 11 7 10 7v4l-2 2-4-1-20-12-18-8-16-4h-12l-10 4-5 6-2 5-1 6v10l4 17 9 21 9 17 10 15 8 11 7 9 9 11 16 17 16 16 8 7 6 5-1 8-1 3-4-2-13-12-10-9-12-12-7-8-11-12-11-14-9-12-7-10-7-11-6-11-8-16-7-16v-5h9l-12-8-2-5-1-6v-17l3-9 4-5 8-4z" fill="currentColor"/>
<path transform="translate(234,258)" d="m0 0h14l20 6 19 10 9 6-1 3-5 3-8-1-13-4-3-3-5-11-1 1 1 12-8 4-4-1-14-9 9 11 3 3v18l4 13 8 17 12 18 6 8 7 9 11 13 21 21 9 7-1 7-2 4-8-6-7-7-8-7-13-13-7-8-11-13-7-9-9-13-8-12-6-11-9-19-4-12-2-11v-11l3-8 3-3z" fill="currentColor"/>
<path transform="translate(253,296)" d="m0 0 7 6 13 10 3 2 2 15 5 12 10 15 11 13 9 10 8 8 10 8 13 9 8 4 4 1h13l11 13v2h2l-5-14v-3l15 15 2 3-1 7-4 3h-13l-13-5-10-5-12-8-16-13-10-9-15-14-11-13-9-11-12-18-7-12-6-14-2-6-1-8z" fill="currentColor"/>
<path transform="translate(293,303)" d="m0 0 4 1 12 14 10 10 13 10 14 9 11 6 16 7 18 5 20 3 8 1 1 1 1 19-1 1-19-1-25-5-19-7-9-5-4-5-10-13-13-13-7-8-8-6-10-6-5-4-5-8v-2z" fill="currentColor"/>
<path transform="translate(398,406)" d="m0 0 3 1 4 7 5 6 8 4 4 14 1 12-3 11-5 4-7 2-12-1-4-2-2-7-2 6-6-1-15-7-11-6-15-10-9-7-2-11v-4l4 2 13 9 10 6 16 6 5 1h10l8-4 3-4 3 1 9 11 4 4-10-21-4-7-3-12z" fill="currentColor"/>
<path transform="translate(419,407)" d="m0 0h8l2 6-2 1v2l6 3 7 18 4 16 1 16-2 10-4 6-5 4-9 3h-13l-11-3-4-7-3-9 2-1h16l9-4 6-9 1-3v-17l-5-20-4-8z" fill="currentColor"/>
<path transform="translate(282,321)" d="m0 0 5 2 7 5 6 3 2 11 7 11 9 10 8 8 10 7 10 3 9 11 7 8 1 4-10-2-11-6-13-10-24-24-9-12-8-12-6-14z" fill="currentColor"/>
<path transform="translate(335,442)" d="m0 0 9 6 16 10 14 7 13 5 2 7v8l-5-1-24-12-14-9-9-7-2-6-1-7z" fill="currentColor"/>
<path transform="translate(395,180)" d="m0 0 5 1 1 4-11 16-12 14-4 5-4-1 1-6 7-14 8-10 6-7z" fill="currentColor"/>
<path transform="translate(494,388)" d="m0 0h10v3l-20 10h-15l-7-1v-4l21-6z" fill="currentColor"/>
<path transform="translate(453,413)" d="m0 0h10l13 3v2l-6 4-16-2-16-3v-2z" fill="currentColor"/>
<path transform="translate(308,338)" d="m0 0 7 6 10 10 7 8 7 9h-3l-10-8-11-11-7-11z" fill="currentColor"/>
<path transform="translate(260,287)" d="m0 0h4l4 10-4-2-6-5v-2z" fill="currentColor"/>
</svg>
