<svg width="24" height="24" viewBox="-5 65 395 395" fill="none" stroke="currentColor" stroke-width="24" stroke-linecap="round" stroke-linejoin="round" xmlns="http://www.w3.org/2000/svg">
  <path d="M375.27,408.096L208.773,170.082l7.72,-5.4c6.928,-4.847,8.616,-14.392,3.769,-21.32q-30,-40 -74.267,-63.023l-8.541,-12.21c-4.603,-6.579,-13.668,-8.184,-20.25,-3.58L89.89,83.655c-6.58,4.603,-8.183,13.669,-3.58,20.25l8.541,12.21L78.447,127.59l-14.122,3.426L4.591,145.509c-2.829,0.687,-4.763,3.303,-4.579,6.208c0.819,12.976,5.002,48.613,26.353,79.135c25,35,60,55,80.302,71.889c2.671,1.171,5.784,0.254,7.402,-2.173l19.095,-71.144l8.06,-12.091l16.404,-11.476l166.498,238.015c4.603,6.58,13.668,8.183,20.25,3.58l27.314,-19.106C378.27,423.743,379.873,414.676,375.27,408.096z"/>
</svg>