<svg xmlns="http://www.w3.org/2000/svg" width="24" height="24" viewBox="0 70 745 615">
  <path fill="none" stroke="currentColor" stroke-linecap="round" stroke-linejoin="round" stroke-width="35" d="M293 208v1h0v0h0v0h0-1 0v0h0v0h0v0h0v0h0v0h0v0h0v0h0v1h0v0h0v0h0v0h0v0h0v0h0v0h0v-1h0v0h0v0h0v0h0v0h0v0h0v0h0v0h0v0h0v0h0v-1h0v0h0v0h0v0h0v0h0v0zv-1h0v0h0v0zh1v0h0v0h0v0h0v-1h0v0h0v0h0v0h0v0h0v0h1v0h0v0h0v0h0v0h0v-1h0v0h0v0h0v0h0v0h1v0h0v0h0v0h0v0h0v-1h0v0h1v0h0v0h0v0h0v0h0v0h1v0h0v0h0v-1h0v0h0v0h1v0h0v0h0v0h0v0h1v0h0v0h0v0h0v-1h1v0h0v0h0v0h0v0h1v0h0v0h0v0h1v0h0v0h0v-1h1v0h0v0h0v0h1v0h0v0h0v0h1v0h0v0h0v0h1v-1h0v0h0v0h0v0h1v0h0v0h0v0h0v0h1v0h0v0h0v-1h0v0h1v0h0v0h0v0h0v0h0v0h0v0h0v0h0l1-1h0v0h0v0h0v0h0v0h0v0h0v0h0v0h0v0h0v-1h0v0h0v0h0v0h1v0h0v0h0v0h0v0h0v0h0v0h0v-1h0v0h0v0h0v0h0v0h0v0h0v0h0v0h0v0h0v0h0v-1h0v0h0v0h0v0h0v0h1v0h0v0h0v0h0v0h0v0h0v-1h0v0h0v0h0v0h0v0h0v0h0v0h0v0h0v0h0v0h0v-1h0v0h0v0h0v0h0v0h0v0h0v0h0v0h0v0h0v0h0v-1h0v0h0v0h0v0h1v0h0v0h0v0h0v0h0v0h0v0h0v-1h0v0h0v0h0v0h0v0h0v0h0v0h0v0h0v0h0v0h0v-1h0v0h0v0h0v0h0v0h0v0h0v0h0v0h0v0h0v0h0v-1h0v0h0v0h0v0h1v0h0v0h0v0h0v0h0v0h0v-1h0v0h0v0h0v0h0v0h0v0h0v0h0v0h0v0h0v0h0v-1h0v0h0v0h0v0h0v0h0v0h0v0h0v0h1v0h0v0h0v-1h0v0h0v0h0v0h0v0h0v0h0v0h0v0h0v0h0v0h0v-1h0v0h0v0h0v0h0v0h0v0h1v0h0v0h0v0h0v-1h0v0h0v0h0v0h0v0h0v0h0v0h0v0h0v0h0v0h0v-1h0v0h1v0h0v0h0v0h0v0h0v0h0v0h0v0h0v0h0v-1h0v0h0v0h0v0h1v0h0v0h0v0h0v0h0v0h0v-1h0v0h0v0h0v0h0v0h1v0h0v0h0v0h0v0h0v-1h1v0h0v0h0v0h0v0h0v-1h0v0h0v0h0v0h0v0h1v0h0v0h0v0h0v0h0v0h0v-1h0v0h0v0h1v0h0v0h0v0h0v0h0v0h0v0h0v-1h0v0h1v0h0v0h0v0h0v0h0v0h0v0h0v-1h0v0h1v0h0v0h0v0h0v0h0v0h0v0h0v0h0v-1h1v0h0v0h0v0h0v0h0v0h0v0h0v0h1v0h0v-1h0v0h0v0h0v0h0v0h1v0h0v0h0v0h0v-1h0v0h0v0h0v0h0v0h1v0h0v0h0v0h0v0h0v-1h0v0h0v0h1v0h0v0h0v0h0v0h0v0h0v0h0v-1h1v0h0v0h0v0h0v0h0v0h0v0h0v0h1v0h0v-1h0v0h0v0h1v0h0v0h0v0h0v0h0v-1h1v0h0v0h0v0h0v0h0v0h1v0h0v0h0v0h0v-1h0v0h0v0h0v0h0v0h0v0h0v0h0v0h1v0h0v-1h0v0h0v0h0v0h0v0h0v0h0v0h0v0h0v0h0v0h0v-1h0v0h0v0h0v0h0v0h1v0h0v0h0v0h0v0h0v0h0v-1h0v0h0v0h0v0h0v0h0v0h0v0h0v0h0v0h0v-1h0v0h0v0h0v0h0v0h0v0h0v0h0v0h0v0h0v0h0v-1h0v0h0v0h0v0h0v0h0v0h0v0h1v0h0v0h0v0h0v-1h0v0h0v0h0v0h0v0h0v0h0v0h0v0h0v0h0v0h0v-1h0v0h0v0h0v0h0v0h0v0h0v0h0v0h0v0h0v0h0v-1h0v0h0v0h0v0h0v0h0v0h0v0h0v0h0v0h0v0h0v-1h0v0h0v0h0v0h0v0h0v0h0v0h0v0h0v0h0v0h0v-1h0v0h0v0h0v0h0v0h0v0h0v0h0v0h0v0h0v0h0v-1h0-1 0v0h0v0h0v0h0v0h0v0h0v0h0v0h0v0h0v0h0v-1h0v0h0v0h0v0h0v0h0v0h0v0h0v0h0v0h0v0h0v-1h0v0h0v0h0v0h0v0h0v0h0v0h0v0h0v0h0v0h0v-1h0v0h0v0h0v0h0v0h0v0h0v0h0v0h0v0h0v0h0v-1h0v0h0v0h0v0h0v0h0v0h0v0h0v0h0v0h0v0h0v-1h0v0h0v0h0v0h0v0h0v0h0v0h0v0h0v0h0v0h0v-1h0v0h0-1 0v0h0v0h0v0h0v0h0v0h0v0h0v0h0v-1h0v0h0v0h0v0h0v0h0v0h0-1v0h0v-1h0v0h0v0h0v0h0v0h0v0h0-1 0v0h0v0h0v0h0v0h0v-1h0v0h0v0h0v0h0-1 0v0h0v0h0v0h0v0h0v-1h0-1 0v0h0v0h0v0h0v0h0v0h0v0h0v0h0v0h0-1 0v0h0v-1h0v0h0v0h0v0h0v0h0v0h0v0h0-1 0v0h0v0h0v-1h0v0h0v0h0v0h0v0h0v0h0-1 0v0h0v0h0v0h0v0h0v-1h0v0h0v0h0v0h0v0h0-1 0v0h0v0h0v0h0v0h0v0h0v-1h0v0h0v0h0v0h0v0h0-1 0v0h0v0h0v0h0v0h0v0h0v-1h0v0h0v0h0v0h0v0h0-1v0h0v0h0v0h0v0h0v-1h0v0h0v0h0v0h0v0h0v0h0v0h-1 0v0h0v0h0v0h0v-1h0v0h0v0h0v0h0v0h0v0h0v0h0-1 0v0h0v0h0v0h0v-1h0v0h0v0h0v0h0v0h0v0h0v0h0-1 0v0h0v0h0v0h0v-1h0v0h0v0h0-1 0v0h0v0h0v0h0v0h0v-1h0v0h0v0h0v0h0-1 0v0h0v0h0v0h0v0h0v-1h0v0h0v0h0-1 0v0h0v0h0v0h0v0h0v0h0v-1h0v0h0v0h-1 0v0h0v0h0v0h0v0h0v0h0v-1h0-1 0v0h0v0h0v0h0v0h0v-1h0-1v0h0v0h0v0h0v0h0v0h0v0h0v0h0-1 0v-1h0v0h0v0h0v0h0v0h0v0h0v0h-1 0v-1h0v0h0v0h0v0h0v0h0v0h0-1 0v0h0v0h0v-1h0v0h0-1v0h0v0h0v0h0v-1h0v0h0v0h0v0h0v0h-1 0v0h0v0h0v0h0v-1h0v0h0-1 0v0h0v0h0v0h0v-1h0-1v0h0v0h0v0h0v0h0v0h0v0h0v0h-1 0v-1h0v0h0v0h0v0h0v0h0v0h0-1 0v0h0v-1h0v0h0v0h0v0h0v0h-1 0v0h0v-1h0v0h0-1v0h0v0h0v0h0v-1h0v0h0v0h0v0h-1 0v0h0v0h0v0h0v-1h0v0h0-1 0v0h0v0h0v0h0v0h0v0h0l-1-1h0v0h0v0h0v0h0-1v0h0v-1h0v0h0v0h0v0h0v0h-1 0v0h0v-1h0v0h0-1v0h0v0h0v-1h0v0h0v0h0v0h-1 0v0h0v0h0v-1h0v0h-1v0h0v0h0v0h0v0h0v-1h0-1 0v0h0v0h0v0h0v0h0-1 0v-1h0v0h0v0h0v0h0-1v0h0v0h0v-1h0v0h0v0h0v0h0-1 0v0h0v-1h0v0h-1 0v0h0v0h0v-1h0v0h0-1v0h0v0h0v0h0v-1h0-1 0v0h0v0h0v0h0v0h-1 0v-1h0v0h0v0h0v0h0-1 0v-1h0v0h0v0h0v0h0v0h-1 0v0h0v-1h0v0h0v0h0-1v0h0v0h0v-1h0-1 0v0h0v0h0v0h0v-1h0-1 0v0h0v0h0v0h0v0h0v0h0-1 0v-1h0v0h0v0h0v0h0v0h0v0h0v0h0-1v0h0v0h0v-1h0v0h0v0h0v0h0-1 0v0h0v0h0v0h0v-1h0v0h0v0h0v0h-1 0v0h0v0h0v-1h0v0h0v0h0-1 0v0h0v0h0v0h0v0h0v-1h0-1v0h0v0h0v0h0v0h0-1 0v0h0v-1h0v0h0v0h0v0h0v0h0v0h0-1 0v0h0v0h0v-1h0v0h0v0h0-1 0v0h0v0h0v0h0v0h0v-1h0v0h0v0h0-1 0v0h0v0h0v0h0v0h0v0h0v0h0-1v-1h0v0h0v0h0v0h0v0h0v0h0v0h0-1v0h0v0h0v-1h0v0h0v0h0v0h0v0h0-1 0v0h0v0h0v0h0v-1h0v0h0v0h0-1 0v0h0v0h0v0h0v0h0v0h0-1 0v-1h0v0h0v0h0v0h0v0h0-1 0v0h0v0h0v0h0v0h0v0h0v-1h0v0h-1 0v0h0v0h0v0h0v0h0v0h0v0h0v0h0v0h0-1 0v-1h0v0h0v0h0v0h0v0h0v0h0v0h0-1 0v-1h0v0h0v0h0v0h0v0h0v0h0v0h0v0h0v0h0-1 0v0h0v-1h0v0h0v0h0v0h0v0h0v0h0-1 0v0h0v0h0v0h0v0h0v-1h0v0h0-1 0v0h0v0h0v0h0v0h0v0h0v0h0-1 0v0h0v-1h0v0h0-1 0v0h0v0h0v0h0-1 0v0h0v0h0v0h0-1 0v-1h0v0h0v0h0-1 0v0h0v0h0-1 0v0h0v0h0-1 0v0h0-1 0v0h0-1 0-1 0-1 0v0h0-1 0v0h0-1 0v0h0v0h0-1 0v0h0-1 0v0h0v0h0v0h0v1h0-1 0v0h0v0h0v0h0v0h0v0h0-1 0v0h0v0h0v0h0v0h0v1h0-1 0v0h0v0h0v0h0v0h0-1 0v0h0v0h0v0h0v1h0v0h0v0h0v0h0-1 0v0h0v0h0v0h0v0h0v0h0v1h0-1 0v0h0v0h0v0h0v0h0v0h0v0h0-1v0h0v1h0v0h0v0h0v0h0v0h0v0h0-1 0v0h0v0h0v1h0v0h0v0h0v0h0v0h0-1 0v0h0v0h0v0h0v0h0v1h0v0h0-1v0h0v0h0v0h0v0h0v0h0v1h0v0h0v0h0v0h-1 0v0h0v0h0v0h0v1h0v0h0v0h0v0h0-1 0v0h0v0h0v0h0v0h0v0h0v0h0v1h0v0h0v0h0v0h0-1 0v0h0v0h0v0h0v0h0v0h0v0h0v1h0v0h0v0h0v0h0-1 0v0h0v0h0v0h0v0h0v0h0v0h0v1h0v0h0-1 0v0h0v0h0v1h0v0h0v0h0v0h0v0h0-1 0v0h0v0h0v0h0v0h0v0h0v1h0v0h0v0h0v0h0v0h0-1 0v0h0v0h0v0h0v0h0v1h0v0h0-1 0v0h0v0h0v1h0v0h0v0h0v0h0v0h0v0h0-1 0v0h0v0h0v0h0v0h0v1h0v0h0v0h0v0h0v0h0v0h-1 0v0h0v0h0v0h0v0h0v1h0v0h0v0h0v0h0v0h0v0h-1 0v0h0v0h0v1h0v0h0-1 0v0h0v0h0v0h0v0h0v1h0v0h0v0h0v0h0v0h0-1 0v0h0v0h0v0h0v0h0v0h0v1h0v0h0-1 0v0h0v0h0v0h0v0h0v0h0v0h0v1h0v0h0-1 0v0h0v0h0v0h0v0h0v0h0v0h0v1h0v0h0-1 0v0h0v0h0v0h0v0h0v0h0v0h0-1 0v1h0v0h0v0h0v0h0v0h0v0h0-1 0v0h0v0h0v0h0v1h0v0h0-1 0v0h0v0h0v0h0v0h0v0h0-1 0v0h0v0h0v0h0v1h0-1 0v0h0v0h0v0h0v0h0v0h0-1 0v0h0v0h0v0h0-1 0v1h0v0h0v0h0-1 0v0h0v0h0-1 0v0h0v0h0-1 0-1 0v0h0v0h0-1 0v0h0v0h0v0h0v0h0v0h0v0h0l-1-1h0v0h0v0h0v0h0v0h0v0h0v0h0-1 0v0h0v0h0v-1h0v0h0v0h0v0h-1 0v0h0v0h0v0h0v0h0-1 0v0h0v0h0v-1h0v0h0-1 0v0h0v0h0v0h0-1 0v0h0v0h0v0h0-1 0v0h0v0h0v-1h0-1 0v0h0v0h0-1 0v0h0v0h0-1 0v0h0v0h0-1 0-1 0v0h0-1 0v0h0-1 0-1 0-1 0-1 0v0h0-1 0v0h0-1 0v0h0-1 0v0h0-1 0v0h0v0h0-1 0v0h0v0h0v1h0-1 0v0h0v0h0v0h0-1 0v0h0v0h0v0h0v0h0-1 0v0h0v1h0v0h0v0h0v0h0-1 0v0h0v0h0v0h0v0h0v0h0-1 0v1h0v0h0v0h0v0h0v0h0-1 0v0h0v0h0v0h0v0h0v1h0v0h0-1 0v0h0v0h0v0h0v0h0v0h0v0h0-1 0v1h0v0h0v0h0v0h0v0h0v0h0-1 0v0h0v0h0v1h0v0h0v0h0v0h0v0h0-1 0v0h0v0h0v0h0v0h0v1h0-1v0h0v0h0v0h0v0h0v0h0v1h0v0h0-1 0v0h0v0h0v0h0v0h0v0h0v0h0v1h-1 0v0h0v0h0v0h0v0h0v0h0v0h0v0h0-1 0v1h0v0h0v0h0v0h0v0h0v0h0v0h0v0h0v0h0-1 0v1h0-1 0v1h0-1 0v1h0v0h0v0h0v0h0-1 0v1h0v0h0v0h0v0h0v0h0-1 0v1h0v0h0v0h0v0h0v0h0v0h0v0h0v0h0v0h0-1 0v1h0v0h0v0h0v0h0v0h0v0h0v0h0v0h0v0h0v0h0-1 0v1h0v0h0v0h0v0h0v0h0v0h0v0h0v0h0v0h0v0h0-1 0v1h0v0h0v0h0v0h0v0h0v0h0v0h0v0h0l-1 1h0v0h0v0h0v0h0v0h0v0h0v0h0v0h0v0h0v0h0v1h0-1 0v0h0v0h0v0h0v0h0v0h0v0h0v0h0v0h0v0h0v1h0v0h0v0h0v-1h0v0h0v0h0v0h0v0h1v0h0v0h0-1 0v0h0v0h0v1h0v0h0v0h0v0h0v0h0v0h0v0h0v0h0v0h0-1 0v0h0v1h0v0h0v0h0v0h0v0h0v0h0v0h0v0h0v0h0-1 0v1h0-1 0v1h0v0h0v0h0v0h0v0h0v0h0v0h0v0h0v0h0-1 0v1h0v0h0v0h0v0h0v0h0v0h0v0h0v0h0v0h0v0h0-1 0v1h0v0h0v0h0v0h0v0h0v0h0v0h0v0h0v0h0v0h0v1h0v-1h0v1h0v0h0v0h0v0h0v0h0v0h0v0h0v0h0v0h0v1h0-1 0v0h0v0h0v0h0v0h0v0h0v0h0v0h0v0h0v0h0v1h0v0h0v0h0v0h0v0h0-1 0v0h0v0h0v0h0v0h0v1h0v0h0v0h0v0h0v0h0v0h0v0h0v0h0v0h0-1 0v1h0v0h0v0h0v0h0v0h0v0h0v0h0v0h0v1h0v0h0v0h0v0h0-1 0v0h0v0h0v0h0v0h0v0h0v0h0v1h0v0h0v0h0v0h0v0h0v0h0v0h0-1 0v0h0v0h0v1h0v0h0v0h0v0h0v0h0v0h0v0h0v0h0v0h0v1h0-1 0v0h0v0h0v0h0v0h0v0h0v0h0v0h0v0h0v0h0v1h0v0h0v0h0v0h0-1 0v0h0v0h0v0h0v0h0v1h0v0h0v0h0v0h0v0h0v0h0v0h-1 0v0h0v0h0v1h0v0h0v0h0v0h0v0h0v0h0v0h0v0h0v0h0v1h0v0h-1 0v0h0v0h0v0h0v0h0v0h0v0h0v1h0v0h0v0h0v0h0v0h0-1 0v0h0v0h0v0h0v0h0v1h0v0h0v0h0v0h0v0h0v0h0v0h0v1h0-1 0v0h0v0h0v0h0v0h0v0h0v0h0v0h0v0h0v1h0v0h0v0h0v0h0v0h0v0h0v0h-1 0v0h0v0h0v0h0v1h0v0h0v0h0v0h0v0h0v0h0v0h0v0h0v1h0v0h0-1 0v0h0v0h0v0h0v0h0v0h0v0h0v1h0v0h0v0h0v0h0v0h0v0h0v0h0v0h0v0h0v0h0v1h0-1 0v0h0v0h0v0h0v0h0v0h0v0h0v0h0v0h0v0h0v1h0v0h0v0h0v0h0v0h0v0h0v0h0v0h0v0h0v0h0v1h0-1 0v0h0v0h0v0h0v0h0v0h0v0h0v0h0v0h0v0h0v1h0v0h0v0h0v0h0v0h0v0h0v0h0v0h0v0h0v0h0v1h0v0h0v0h0v0h0-1 0v0h0v0h0v0h0v0h0v0h0v1h0v0h0v0h0v0h0v0h0v0h0v0h0v0h0v0h0v0h0v1h0v0h0v0h0v0h0v0h0v0h0v0h0v0h0v0h0v0h0v1h0v0h0v0h0v0h0v0h0-1 0v0h0v0h0v0h0v0h0v0h0v1h0v0h0v0h0v0h0v0h0v0h0v0h0v0h0v0h0v0h0v1h0v0h0v0h0v0h0v0h0v0h0v0h0v0h0v0h0v0h0v1h0v0h0v0h0v0h0v0h0v0h0v0h0v0h0v0h0v0h0v1h0v0h0v0h0v0h0v0h0v0h0-1 0v0h0v0h0v0h0v0h0v1h0v0h0v0h0v0h0v0h0v0h0v0h0v0h0v0h0v0h0v1h0v0h0v0h0v0h0v0h0v0h0v0h0v0h0v0h0v0h0v1h0v0h0v0h0v0h0v0h0v0h0v0h0v0h0v0h0v0h0v1h0v0h0v0h0v0h0v0h0v0h0v0h0v0h0v0h0v0h0v1h0v0h0v0h0v0h0v0h0v0h0v0h0v0h0v0h0v0h0v1h0v0h0v0h0v0h0v0h0v0h0v0h0v0h0v0h0v0h0v1h0v0h0v0h0v0h0v0h0v0h0v0h0v0h0v0h0v0h0v1h0v0h0v0h0v0h0v0h0v0h0v0h0v0h0v0h0v1h0v0h0v0h0v0h0v0h0v0h0v0h0v0h0v0h0v1h0v0h0v0h0v0h0v0h0v0h0v0h0v0h0v0h1v0h0v1h0v0h0v0h0v0h0v0h0v0h0v0h0v0h0v0h0v0h0v1h0v0h0v0h0v0h0v0h0v0h0v0h0v0h0v0h0v0h0v1h0v0h0v0h0v0h0v0h0v0h0v0h0v0h0v0h1v0h0v1h0v0h0v0h0v0h0v0h0v0h0v0h0v0h0v0h0v0h0v1h0v0h0v0h0v0h0v0h0v0h1v0h0v0h0v0h0v1h0v0h0v0h0v0h0v0h0v0h0v0h0v0h0v0h0v0h1v1h0v0h0v0h0v0h0v0h0v0h1v0h0v1h0v0h0v0h1v0h2v0h1v0h0v0h1v-1h0v0h1v0h0v0h0v0h1v0h0v0h0v0h1v0h0v0h0v-1h1v0h0v0h0v0h1v0h0v0h1v-1h0v0h0v0h0v0h0v0h1v0h0v0h0v0h0v-1h0v0h1v0h0v0h0v0h0v0h0v0h0v0h1v0h0v0h0v-1h0v0h0v0h0v0h0v0h1v0h0v0h0v0h0v0h0v-1h0v0h0v0h1v0h0v0h0v0h0v0h0v0h0v0h0v0h0l1-1h0v0h0v0h0v0h0v0h0v0h0v0h0v0h1v-1h0v0h0v0h0v0h0v0h1v0h0v0h0v-1h0v0h0v0h0v0h0v0h1v0h0v0h0v0h0v-1h0v0h0v0h1v0h0v0h0v0h0v0h0v0h0v0h0v-1h1v0h0v0h0v0h0v0h0v0h0v-1h1v0h0v0h0v0h0v0h0v0h0v0h0v0h0v-1h0v0h1v0h0v0h0v0h0v0h0v0h0v0h0v-1h1v0h0v0h0v0h0v0h0v0h0l1-1h0v0h0v0h0v0h0v0h0v0h0v0h1v-1h0v0h0v0h0v0h0v0h0v0h0v0h0v0h0v0h0v0h1v-1h0v0h0v0h0v0h0v0h0v0h0v0h0v0h0v0h0v0h1v-1h0v0h0v0h0v0h0v0h0v0h0v0h0v0h0v0h0v0h1v-1h0v0h0v0h0v0h0v0h0v0h0v0h0v0h0v0h0v0h1v-1h0v0h0v0h0v0h0v0h0v0h0v0h0v0h0v0h0v0h1v-1h0v0h0v0h0v0h0v0h0v0h0l1-1h0v0h0v0h0v0h0v0h0l1-1h0v0h0v0h0v0h0v0h0v0h0v0h0v0h0v0h0v0h0v-1h1v0h0v0h0v-1h0v0h1v0h0v0h0v0h0v0h0v0h0v0h0v0h0v0h0v-1h1v0h0v0h0v0h0v0h0v0h0v-1h0v0h0v0h1v0h0v0h0v0h0v0h0v0h0v0h0v0h0v-1h1v0h0v0h0v0h0v-1h0v0h0v0h0v0h1v0h0v0h0v0h0v0h0v-1h0v0h0v0h0v0h1v0h0v0h0v0h0v0h0v0h0v-1h0v0h1v0h0v0h0v-1h0v0h0v0h0v0h0v0h0v0h1v0h0v-1h0v0h0v0h0v0h0v0h0v0h0v0h1v0h0v0h0v0h0v-1h0v0h0v0h0v0h0v0h1v0h0v0h0v-1h0v0h0v0h0v0h0v0h1v0h0v-1h0v0h0v0h0v0h0v0h0v0h0v0h1v-1h0v0h0v0h0v0h0v0h0v0h0v0h0v0h0v-1h1v0h0v0h0v0h0v0h0v0h0v0h0v-1h0v0h1v0h0v0h0v0h0v0h0v0h0v0h0v-1h0v0h0v0h1v0h0v0h0v0h0v0h0v0h0v-1h0v0h0v0h0v0h1v0h0v0h0v0h0v0h0v0h0v-1h0v0h0v0h0v0h1v0h0v0h0v0h0v-1h0v0h0v0h0v0h0v0h0v0h0v0h1v0h0v0h0v-1h0v0h0v0h0v0h0v0h0v0h0v0h0v0h1v-1h0v0h0v0h0v0h0v0h0v0h0v0h0v0h0v0h0v-1h1v0h0v0h0v0h0v0h0v0h0v0h0v0h0v-1h0v0h0v0h1v0h0v0h0v0h0v0h0v0h0v-1h0v0h0v0h0v0h0v0h0v0h1v0h0v0h0v0h0v-1h0v0h0v0h0v0h0v0h0v0h0v0h0v0h0v0h0v0h0v-1h0v0h1v0h0v0h0v0h0v0h0v0h0v0h0v0h0v0h0v-1h0v0h0v0h0v0h0v0h0v0h0v0h0v0h0v0h1v0h0v-1h0v0h0v0h0v0h0v0h0v0h0v0h0v0h0v0h0v0h0v-1h0v0h0v0h0v0h0v0h0v0h0v0h0v0h1v0h0v0h0v-1h0v0h0v0h0v0h0v0h0v0h0v0h0v0h0v0h0v-1h0v0h0v0h0v0h0v0h0v0h0v0h0v0h0v0h0v0h1v-1h0v0h0v0h0v0h0v0h0v0h0v0h0v0h0v0h0v0h0v-1h0v0h0v0h0v0h0v0h0v0h0v0h0v0h0v0h0v0h0v-1h0v0h0v0h0v0h0v0h0v0h0v0h1v0h0v0h0v0h0v-1h0v0h0v0h0v0h0v0h0v0h0v0h0v0h0v0h0v0h0v-1h0v0h0v0h0v0h0v0h0v0h0v0h0v0h0v0h0v0h0v-1h0v0h0v0h0v0h0v0h0v0h0v0h0v0h1v0h0v-1h0v0h0v0h0v0h0v0h0v0h0v0h0v0h0v0h0v0h0v-1h0v0h0v0h0v0h0v0h0v0h0v0h0v0h0v0h0v0h0v-1h0v0h0v0h0v0h0v0h0v0h0v0h0v0h0v0h0v0h0v-1h0v0h0v0h0v0h0v0h0v0h0v0h0v0h1v0h0v0h0v-1h0v0h0v0h0v0h0v0h0v0h0v0h0v0h0v0h0v0h0v-1h0v0h0v0h0v0h0v0h0v0h0v0h0v0h0v0h0v0h0v-1h0v0h0v0h0v0h0v0h0v0h0v0h0v0h0v0h0v0h0v-1h0v0h0v0h0v0h0v0h0v0h0v0h0v0h1v0h0v0h0v-1h0v0h0v0h0v0h0v0h0v0h0v0h0v0h0v0h0v0h0v-1h0v0h0v0h0v0h0v0h0v0h0m-12 28-10 12m-9 10v-1h0v0h0v0h0v0h0v0h0v0h0v0h1v0h0-1 0v0h0v0h0v0h0v0h0v0h0v0h0v0h0zh-1 0v0h0v0h0v0h0v0h0v0h0v0h0v0h0v0h0v0h0-1 0v1h0v0h0v0h0v0h0v0h0v0h0v0h0v0h0v0h0v0h0-1 0v1h0v0h0v0h0v0h0v0h0v0h0v0h0v0h0v0h0v0h-1 0v1h0v0h0v0h0v0h0v0h0v0h0v0h0v0h0v0h0-1 0v1h0v0h0v0h0v0h0v0h0-1 0v1h0v0h0v0h0v0h0-1 0v1h0-1 0v1h0-1 0v1h0-1 0v1h0v0h0v0h0v0h0v0h-1 0v1h0v0h0v0h0v0h0v0h0v0h0v0h0v0h0v0h0v0h-1 0v1h0v0h0v0h0v0h0v0h0v0h0v0h0v0h0v0h0v0h0-1 0v1h0v0h0v0h0v0h0v0h0v0h0v0h0v0h0v0h0v0h0-1 0v1h0v0h0v0h0v0h0v0h0v0h0v0h0v0h0v0h0v0h0-1v1h0v0h0v0h0v0h0v0h0v0h0v0h0v0h0v1h0-1 0v0h0v0h0v0h0v0h0v0h0v0h0v0h0v0h0v0h0v1h0v0h0-1 0v0h0v0h0v0h0v0h0v0h0v0h0v0h1v0h0v0h0v0h0v0h0v-1h0v0h0v0h0v1h0m-17 6v1h0v0h0v0h0v0h0v0h0v0h0v0h0v0h0v0h0v0h0v1h0v0h0v0h0v0h0v0h0v0h0v0h0v0h0v0h0v0h0v1h0v0h0-1 0v0h0v0h0v0h0v0h0v0h0v0h0v0h0v0h0v1h0v0h0v0h0v0h0v0h0v0h0v0h0v0h0v0h0v0h0v1h0v0h0v0h0v0h0v0h0v0h0v0h0v0h0-1 0v0h0v1h0v0h0v0h0v0h0v0h0v0h0v0h0v0h0v0h0v0h0v1h0v0h0v0h0v0h0v0h0v0h0v0h0v0h0v0h0v0h0v1h0v0h0v0h0-1 0v0h0v0h0v0h0v0h0v0h0v0h0v1h0v0h0v0h0v0h0v0h0v0h0v0h0v0h0v0h0v0h0v1h0v0h0v0h0v0h0v0h0-1 0v0h0v0h0v0h0v0h0v0h0v1h0v0h0v0h0v0h0v0h0v0h0v0h0v0h0v0h0v1h0-1 0v0h0v0h0v0h0v0h0v0h0v0h0v0h0v0h0v0h0v1h0v0h0-1 0v0h0v0h0v0h0v0h0v0h0v0h0v0h0v0h0v1h0v0h0-1 0v0h0v0h0v0h0v0h0v0h0v0h0v0h0v0h0l-1 1h0v0h0v0h0v0h0v0h0v0h0v0h0v0h0-1 0v0h0v1h0v0h0v0h0v0h0v0h0v0h0-1 0v0h0v0h0v1h0v0h0v0h0v0h0v0h0-1 0v0h0v0h0v0h0v0h0v1h0v0h0v0h0v0h0-1 0v0h0v0h0v0h0v0h0v1h0v0h0-1 0v0h0v0h0v0h0v0h0v0h0v0h0v0h0-1 0v1h0v0h0v0h0v0h0v0h0v0h0v0h0v0h0-1 0v0h0v1h0v0h0v0h0v0h0v0h0-1 0v0h0v0h0v0h0v1h0v0h0v0h0v0h-1 0v0h0v0h0v0h0v1h0v0h-1 0v0h0v0h0v0h0v0h0v0h0v0h0-1 0v1h0v0h0v0h0v0h0v0h0v0h0-1 0v0h0v0h0v1h0v0h0v0h0v0h0v0h0-1 0v0h0v0h0v0h0v0h0v1h0v0h0-1 0v0h0v0h0v0h0v0h0v0h0v0h0-1v1h0v0h0v0h0v0h0v0h0v0h0v0h0-1 0v0h0v0h0v1h0v0h0v0h0v0h0-1v0h0v0h0v0h0v0h0v0h0v1h0v0h0v0h0-1 0v0h0v0h0v0h0v0h0-1 0v1h0v0h0v0h0v0h0v0h0v0h0v0h-1 0v0h0v0h0v1h0v0h0v0h0v0h0v0h0-1 0v0h0v0h0v0h0v0h0v1h0v0h0-1 0v0h0v0h0v0h0v0h0v0h0v0h0-1 0v0h0v1h0v0h0v0h0v0h0v0h0v0h0-1 0v0h0v0h0v0h0v0h0v1h0v0h0-1 0v0h0v0h0v0h0v0h0v0h0v0h0-1 0v0h0v1h0v0h0v0h0v0h0-1 0v0h0v0h0v0h0v0h0v1h0-1 0v0h0v0h0v0h0v0h0v0h0v0h-1 0v0h0v0h0v0h0v1h0v0h0-1 0v0h0v0h0v0h0v0h0-1 0v0h0v0h1-1 0v1h0-1 0v1h0-1 0v1h0v0h0v0h0-1 0v0h0v0h0v0h0v0h0v1h0v0h0v0h0v0h0-1 0v0h0v0h0v0h0v0h0v1h0v0h0v0h0-1 0v0h0v0h0v0h0v0h0v0h0l-1 1h0v0h0v0h0v0h0v0h0v0h0v0h0v0h0-1 0v0h0v0h0v1h0v0h0v0h0v0h0v0h0-1 0v0h0v0h0v0h0v1h0v0h0-1 0v0h0v0h0v0h0v0h0v0h0v0h0-1 0v0h0v0h0v1h0v0h0v0h0v0h0v0h0v0h-1 0v0h0v0h0v0h0v1h0-1 0v0h0v0h0v0h0v0h0v0h0v0h0-1 0v0h0v1h0v0h0v0h0v0h0-1 0v0h0v0h0v0h0v0h0v1h0-1 0v0h0v0h0v0h0v0h0v0h0-1 0v0h0v0h0v1h0v0h0v0h0-1 0v0h0v0h0v0h0v0h0-1 0v1h0v0h0v0h0v0h0v0h0v0h0-1 0v0h0v0h0v0h0v1h0-1 0v0h0v0h0v0h0v0h0v0h0-1 0v0h0v0h0v1h0v0h0v0h0v0h0-1 0v0h0v0h0v0h0v0h0v1h0-1 0v0h0v0h0v0h0v0h0v0h0-1 0v0h0v0h0v0h0v0h0v0h0v0h1v0h0v0h0v0h0v0h0v0h1v-1h0v0h0v0h0v0h0v0h1v0h0-1 0v1h0m226-43h1v0h0v0h0v1h0v0h0v0h0v0h0v0h0v0h0v0h0v0h0v0h1v0h0v1h0v0h0v0h0v0h0v0h0v0h0v0h0v0h0v0h0v0h1v1h0v0h0v0h0v0h0v0h0v0h0v0h0v0h0v0h0v1h0v0h1v0h0v0h0v0h0v0h0v0h0v0h0v0h0v0h0v1h1v0h0v0h0v0h0v0h0v0h0v0h0v0h0v1h0v0h0v0h1v0h0v0h0v0h0v0h0v0h0v0h0v0h0v1h0v0h0v0h1v0h0v0h0v0h0v0h0v0h0v0h0v0h0v1h0v0h0v0h1v0h0v0h0v0h0v0h0v0h0v0h0v1h0v0h1v0h0v0h0v0h0v0h0v0h0v0h0v0h0v0h0v1h1v0h0v0h0v0h0v0h0v0h0v0h0v0h0v0h1v0h0v1h0v0h0v0h0v0h0v0h0v0h0v0h1v0h0v0h0v0h0v1h0v0h0v0h0v0h1v0h0v0h0v0h0v0h0v0h1v1h0v0h0v0h1v0h0v0h0v0h0v0h0v0h0v0h1v0h0v1h0v0h0v0h0v0h0v0h1v0h0v0h0v1h0v0h0v0h0v0h0v0h1v0h0v0h0v0h0v0h0v0h0v1h0v0h0v0h1v0h0v0h0v0h0v0h0v0h0v1h1v0h0v0h0v0h0v0h0v0h0v0h0v0h1v0h0v1h0v0h0v0h0v0h0v0h0v0h0v0h1v0h0v1h0v0h0v0h0v0h0v0h1v0h0v0h0v0h0v1h0v0h0v0h0v0h0v0h1v0h0v0h0v0h0v0h0v1h1v0h0v0h0v0h0v0h0v0h0v0h0v0h0v1h0v0h1v0h0v0h0v0h0v0h0v0h0v1h1v0h0v0h0v0h0v0h0v0h0v0h0v0h1v1h0v0h0v0h0v0h0v0h0v0h0v0h1v1h0v0h0v0h0v0h0v0h0v0h0v0h0v0h1v0h0v0h0v1h0v0h0v0h0v0h0v0h0v0h0v0h0v0h1v0h0v0h0v1h0v0h0v0h0v0h0v0h0v0h0v0h0v0h1v0h0v0h0v1h0v0h0v0h0v0h0v0h0v0h0v0h1v1h0v0h0v0h0v0h0v0h0v0h0v0h0v0h1v1h0v0h0v0h0v0h0v0h0v0h0v0h0v0h0v1h1v0h0v0h0v0h0v0h0v0h0v0h0v0h0v1h0v0h1v0h0v0h0v0h0v0h0v0h0v0h0v1h0v0h0v0h0v0h1v0h0v0h0v0h0v0h0v0h0v1h0v0h0v0h0v0h0v0h0v0h1v0h0v0h0v1h0v0h0v0h0v0h0v0h0v0h0v0h0v0h0v0h0l1 1h0v0h0v0h0v0h0v0h0v0h0v0h0v0h0v0h0v1h0v0h0v0h1v0h0v0h0v0h0v0h0v1h0v0h0v0h0v0h0v0h0v0h0v0h1v0h0v1h0v0h0v0h0v0h0v0h0v0h0v0h0v0h0v0h0v1h0v0h1v0h0v0h0v0h0v0h0v0h0v1h0v0h0v0h0v0h0v0h0v0h0v0h1v0h0v1h0v0h0v0h0v0h0v0h0v0h0v0h0v0h0v0h0v1h0v0h0v0h0v0h1v0h0v0h0v0h0v0h0v0h0v1h0v0h0v0h0v0h0v0h0v0h0v0h0v0h1v1h0v0h0v0h0v0h0v0h0v0h0v0h0v0h0v1h0v0h0v0h0v0h0v0h0v0h0v0h1v0h0v0h0v0h0v1h0v0h0v0h0v0h0v0h0v0h0v0h0v0h0v0h0v1h0v0h0v0h0v0h1v0h0v0h0v0h0v0h0v0h0v1h0v0h0v0h0v0h0v0h0v0h0v0h0v0h0v0h0v1h0v0h0v0h1v0h0v0h0v0h0v0h0v0h0v0h0v1h0v0h0v0h0v0h0v0h0v0h0v0h0v0h0v0h0v1h1v0h0v0h0v0h0v0h0v0h0v0h0v0h0v1h0v0h0v0h0v0h0v0h0v0h0v0h0v0h1v1h0v0h0v0h0v0h0v0h0v0h0v0h0v0h0v0h0v1h0v0h0v0h0v0h0v0h0v0h1v0h0v0h0v0h0v1h0v0h0v0h0v0h0v0h0v0h0v0h0v0h0v0h0v1h0v0h0v0h0v0h1v0h0v0h0v0h0v0h0v1h0v0h0v0h0v0h0v0h0v0h0v0h0v0h0v1h0v0h1v0h0v0h0v0h0v0h0v0h0v0h0v0h0v1h0v0h0v0h0v0h0v0h0v0h0v0h0v0h0v0h1v1h0v0h0v0h0v0h0v0h0v0h0v0h0v0h0v0h0v1h0v0h0v0h0v0h0v0h0v0h0v0h1v0h0v0h0v1h0v0h0v0h0v0h0v0h0v0h0v0h0v0h0v1h0v0h0v0h0v0h1v0h0v0h0v0h0v0h0v0h0v1h0v0h0v0h0v0h0v0h0v0h0v0h0v0h0v0h0v0h0v1h1v0h0v0h0v0h0v0h0v0h0v0h0v0h0v0h0v1h0v0h0v0h0v0h0v0h0v0h1v0h0v0h0v0h0v1h0v0h0v0h0v0h0v0h0v0h0v0h0v0h0v1h0v0h0v0h0v0h1v0h0v0h0v0h0v0h0v0h0v1h0v0h0v0h0v0h0v0h0v0h0v0h0v0h0v0h1v1h0v0h0v0h0v0h0v0h0v0h0v0h0v0h0v0h0v1h0v0h0v0h0v0h0v0h0v0h1v0h0v0h0v1h0v0h0v0h0v0h0v0h0v0h0v0h0v0h0v1h0v0h1v0h0v0h0v0h0v0h0v0h0v0h0v0h0v0h0v1h0v0h0v0h0v0h0v0h0v0h0v0h1v0h0v0h0v1h0v0h0v0h0v0h0v0h0v0h0v0h0v0h0v0h0v0h0v1h0v0h0v0h0v0h1v0h0v0h0v0h0v0h0v0h0v0h0v1h0v0h0v0h0v0h0v0h0v0h0v0h1v0h0v1h0v0h0v0h0v0h0v0h0v0h0v0h0v0h0v0h0v0h0v1h0v0h0v0h0v0h1v0h0v0h0v0h0v0h0v0h0v0h0v1h0v0h0v0h0v0h0v0h0v0h0v0h0v0h0v0h1v0h0v1h0v0h0v0h0v0h0v0h0v0h0v0h0v0h0v0h0v0h0v1h0v0h0v0h0v0h1v0h0v0h0v0h0v0h0v0h0v0h0v1h0v0h0v0h0v0h0v0h0v0h0v0h1v0h0v0h0v1h0v0h0v0h0v0h0v0h0v0h0v0h0v0h0v0h0v0h0v1h1v0h0v0h0v0h0v0h0v0h0v0h0v0h0v0h1v0h0v1h0v0h0v0h0v0h0v0h0v0h0v0h0v0h0v0h0v0h0v1h0v0h0v0h0v0h0v0h0v0h0v0h0v0h0v0h0v0h0v1h0v0h1v0h0v0h0v0h0v0h0v0h0v0h0v0h0v0h0v1h1v0h0v0h0v0h0v0h0v0h0v0h0v0h0v0h1v0h0v1h0v0h0v0h0v0h0v0h0v0h0v0h0v0h0v0h0v0h0v1h0v0h0v0h0v0h0v0h0v0h0v0h0v0h0v0h0v0h1v1h0v0h0v0h0v0h0v0h0v0h0v0h0v0h0v0h0v0h0v1h0v0h0v0h0v0h1v0h0v0h0v0h0v0h0v0h0v0h0v1h0v0h0v0h0v0h0v0h0v0h0v0h1v0h0v0h0v1h0v0h0v0h0v0h0v0h0v0h0v0h0v0h0v0h1v1h0v0h0v0h0v0h0v0h0v0h0v0h0v0h0v0h0v0h0v1h1v0h0v0h0v0h0v0h0v0h0v0h0v1h0v0h0v0h1v0h0v0h0v0h0v0h0v0h0v0h0v1h0v0h0v0h0v0h1v0h0v0h0v0h0v0h0v0h0v0h0v1h0v0h0v0h0v0h0v0h1v0h0v0h0v0h0v0h0v1h0v0h0v0h0v0h0v0h1v0h0v0h0v0h0v1h0v0h0v0h0v0h0v0h0v0h0v0h0v0h1v0h0v1h0v0h0v0h0v0h0v0h0v0h0v0h0v0h1v1h0v0h0v0h0v0h0v0h0v0h0v0h0v0h0v0h0v1h1v0h0v0h0v0h0v0h0v0h0v0h0v0h0v0h0v1h0v0h0v0h1v0h0v0h0v0h0v0h0v0h0v0h0v0h0v1h0v0h0v0h0v0h0v0h1v0h0v0h0v0h0v0h0v0h0v1h0v0h0v0h0v0h0v0h0v0h0v0h1v0h0v0h0v0h0v1h0v0h0v0h0v0h0v0h0v0h0v0h0v0h0v0h0v0h1v1h0v0h0v0h0v0h0v0h0v0h0v0h0v0h0v0h0v0h0v1h0v0h0v0h0v0h0v0h0v0h1v0h0v0h0v0h0v0h0v1h0v0h0v0h0v0h0v0h0v0h0v0h0v0h0v0h0v0h0v1h1v0h0v0h0v0h0v0h0v0h0v0h0v0h0v0h0v1h0v0h0v0h1v0h0v0h0v0h0v0h0v0h0v0h0v0h0v1h0v0h0v0h0v0h1v0h0v0h0v0h0v0h0v0h0v1h0v0h0v0h0v0h0v0h1v0h0v0h0v0h0v0h0v0h0v1h0v0h0v0h0v0h0v0h1v0h0v0h0v0h0v0h0v1h0v0h0v0h0v0h1v0h0v0h0v0h0v1h0v0h0v0h0v0h0v0h0v0h0v0h1v1h0v0h0v0h0v0h0v0h0v0h0v0h1v0h0v0h0v1h0v0h0v0h0v0h0v0h0v0h1v1h0v0h0v0h0v0h0v0h0v0h0v0h0v0h0v0h1v0h0v1h0v0h0v0h0v0h0v0h0v0h0v0h0v0h1v1h0v0h0v0h0v0h0v0h0v0h0v0h0v0h1v1h0v0h0v0h0v0h0v0h0v0h0v0h0v0h0v0h0l1 1h0v0h0v0h0v0h0v1h1v0h0v0h0v0h0v0h0v0h0v0h0v0h0v0h0v0h0v1h1v0h0v0h0v0h0v0h0v0h0v0h0v1h1v0h0v0h0v0h0v0h0v1h0v0h1v0h0v0h0v0h0v0h0v0h0v0h0v0h0v0h0v1h0v0h1v0h0v0h0v0h0v0h0v0h0v0h0v0h0v0h0v1h0v0h1v0h0v0h0v1h0v0h1v0h0v0h0v0h0v0h0v1h0v0h0v0h1v0h0v0h0v0h0v0h0v0h0v0h0v0h0v1h0v0h0v0h1v0h0v0h0v0h0v0h0v0h0v0h0v0h0v1h0v0h0v0h1v0h0v0h0v0h0v0h0v0h0v0h0v0h0v1h0v0h0v0h1v0h0v0h0v0h0v0h0v0h0v0h0v0h0v1h0v0h0v0h1v0h0v0h0v0h0v0h0v0h0v0h0v0h0v1h0v0h0v0h1v0h0v0h0v0h0v0h0v0h0v0h0v0h0v1h0v0h0v0h1v0h0v0h0v0h0v0h0v0h0v0h0v0h0v1h0v0h0v0h1v0h0v0h0v0h0v0h0v0h0v1h1v0h0v0h0v0h0v0h0v0h0v0h0v1h0v0h1v0h0v0h0v0h0v0h0v0h0v0h0v0h0v1h1v0h0v0h0v0h0v0h0v0h0v0h0v0h0v0h1v1h0v0h0v0h0v0h0v0h0v0h0v0h0v0h1v0h0v0h0v1h0v0h0v0h0v0h0v0h1v0h0v0h0v0h0v0h0v0h0v1h0v0h1v0h0v0h0v0h0v0h0v0h0v0h0v0h0v0h0v1h1v0h0v0h0v0h0v0h0v0h0v0h0v0h0v0h1v1h0v0h0v0h0v0h0v0h0v0h0v0h0v0h0v0h0v0h1v1h0v0h0v0h0v0h0v0h0v0h0v0h0v0h0v0h0v0h1v1h0v0h0v0h0v0h0v0h0v0h0v0h0v0h0v1h1v0h0v0h0v0h0v0h0v0h0v0h0v0h0v0h0v0h0v1h1v0h0v0h0v0h0v0h0v0h0v0h0v0h0v0h0v0h0v1h0v0h1v0h0v0h0v0h0v0h0v0h0v0h0v0h0v1h0v0h0v0h1v0h0v0h0v0h0v0h0v0h0v0h0v0h0v1h0v0h0v0h1v0h0v0h0v0h0v0h0v0h0v0h0v0h0v1h0v0h0v0h1v0h0v0h0v0h0v0h0v0h0v0h0v0h0v1h0v0h1v0h0v0h0v0h0v0h0v0h0v0h0v0h0v0h0v1h1v0h0v0h0v0h0v0h0v0h0v0h1v0h0v0h0v0h0v1h0v0h0v0h1v0h0v0h0v0h0v0h0v0h0v0h1v1h0v0h0v0h0v0h0v0h0v0h0v0h1v0h0v0h0v1h0v0h0v0h0v0h0v0h0v0h0v0h1v0h0v0h0v1h0v0h0v0h0v0h1v0h0v0h0v0h0v0h0v0h0v1h0v0h0v0h0v0h1v0h0v0h0v0h0v0h0v1h0v0h0v0h1v0h0v0h0v0h0v0h0v0h0v1h0v0h1v0h0v0h0v0h0v0h0v0h0v0h0v0h0v1h1v0h0v0h0v0h0v0h0v0h0v0h0v0h0v0h1v1h0v0h0v0h0v0h0v0h0v0h0v0h0v0h1v1h0v0h0v0h0v0h0v0h0v0h0v0h1v0h0v0h0v1h0v0h0v0h0v0h0v0h0v0h1v0h0v0h0v0h0v1h0v0h0v0h0v0h1v0h0v0h0v0h0v0h0v1h0v0h0v0h1v0h0v0h0v0h0v0h0v0h0v1h0v0h1v0h0v0h0v0h0v0h0v0h0v1h0v0h1v0h0v0h0v0h0v0h0v0h0v0h0v1h1v0h0v0h0v0h0v0h0v0h0v0h0v0h0v0h0v1h1v0h0v0h0v0h0v0h0v0h0v0h0v0h1v1h0v0h0v0h0v0h0v0h0v0h0v0h1v0h0v1h0v0h0v0h0v0h0v0h0v0h0v0h1v0h0v1h0v0h0v0h0v0h0v0h1v0h0v0h0v0h0v0h0v1h0v0h0v0h0v0h0v0h1v0h0v0h0v0h0v0h0v0h0v1h0v0h0v0h1v0h0v0h0v0h0v0h0v0h0v0h0v1h1v0h0v0h0v0h0v0h0v0h0v0h1v0h0v0h0v0h0v1h0v0h1v0h0v0h0v0h0v0h0v0h0v0h1v0h0v1h0v0h0v0h0v0h0v0h0v0h1v0h0v0h0v1h0v0h0v0h0v0h1v0h0v0h0v0h0v0h0v0h0v1h0v0h0v0h1v0h0v0h0v0h0v0h0v0h0v0h0v0h0v1h1v0h0v0h0v0h0v0h0v0h0v0h0v0h1v1h0v0h0v0h0v0h0v0h0v0h0v0h0v0h1v1h0v0h0v0h0v0h0v0h1v0h0v0h0v0h0v1h0v0h0v0h0v0h0v0h0v0h1v0h0v0h0v1h0v0h0v0h0v0h0v0h1v0h0v0h0v0h0v0h0v1h0v0h1v0h0v0h0v0h0v0h0v0h0v0h0v0h0v1h0v0h1v0h0v0h0v0h0v0h0v0h0v0h1v1h0v0h0v0h0v0h0v0h0v0h0v0h1v0h0v0h0v1h0v0h0v0h0v0h0v0h1v0h0v0h0v0h0v0h0v1h0v0h0v0h1v0h0v0h0v0h0v0h0v0h0v0h1v1h0v0h0v0h1v0h0v0h0v0h0v0h0v0h0v0h0v0h1v1h0v0h0v0h0v0h0v0h0v0h0v0h0v0h1v0h0v0h0v1h0v0h0v0h0v0h0v0h0v0h0v0h1v0h0v0h0v0h0v1h0v0h0v0h0v0h0v0h0v0h0v0h1v0h0v1h0v0h1v0h0v0h0v0h0v0h0v1h0v0h0v0h0v0h0v0h0v0h1v0h0v0h0v0h0v1h0v0h0v0h0v0h0v0h1v0h0v0h0v0h0v0h0v1h0v0h0v0h1v0h0v0h0v0h0v0h0v0h0v0h0v0h0v1h0v0h1v0h0v0h0v0h0v0h0v0h0v0h0v0h1v0h0v1h0v0h0v0h0v0h0v0h0v0h1v0h0v0h0v1h0v0h0v0h0v0h1v0h0v0h0v0h0v0h0v0h0v1h1v0h0v0h0v0h0v0h0v0h0v0h1v0h0v0h0v1h0v0h0v0h0v0h0v0h1v0h0v0h0v0h0v0h0v0h0v1h0v0h1v0h0v0h0v0h0v0h0v0h0v0h1v0h0v1h0v0h0v0h0v0h1v0h0v0h0v0h0v0h0v1h0v0h0v0h0v0h1v0h0v0h0v0h0v0h0v0h0v0h0v1h1v0h0v0h0v0h0v0h0v0h0v0h0v0h1v0h0v1h0v0h0v0h0v0h0v0h0v0h1v0h0v0h0v1h0v0h0v0h0v0h0v0h1v0h0v0h0v0h0v0h0v1h0v0h0v0h1v0h0v0h0v0h0v0h0v0h0v0h0v1h1v0h0v0h0v0h0v0h0v0h0v0h0v0h1v1h0v0h0v0h0v0h0v0h0v0h0v0h1v0h0v0h0v1h0v0h0v0h0v0h0v0h0v0h0v0h1v0h0v0h0v0h0v1h0v0h0v0h0v0h0v0h1v0h0v0h0v0h0v0h0v1h0v0h0v0h0v0h1v0h0v0h0v0h0v0h0v0h0v1h0v0h1v0h0v0h0v0h0v0h0v0h0v0h0v0h1v1h0v0h0v0h0v0h0v0h0v0h0v0h0v0h1v0h0v1h0v0h0v0h0v0h0v0h1v0h0v0h0v0h0v0h0v1h0v0h0v0h0v0h1v0h0v0h0v0h0v0h0v0h0v0h1v1h0v0h0v0h1v0h0v0h0v0h0v0h0v0h0v0h1v0h0v1h0v0h0v0h0v0h0v0h0v0h0v0h0v0h1v0h0v1h0v0h0v0h0v0h0v0h0v0h0v0h1v0h0v0h0v0h0v1h0v0h0v0h0v0h1v1h0v0h0v0h0v0h0v0h0v0h1v0h0v0h0v0h0v0h0v1h0v0h0v0h0v0h0v0h1v0h0v0h0v0h0v0h0v1h0v0h0v0h0v0h1v0h0v0h0v0h0v0h0v0h0v0h1v1h0v0h0v0h1v0h0v0h0v0h0v0h0v0h0v0h0v0h0v1h1v0h0v0h0v0h0v0h0v0h0v0h0v0h0v0h0v0h0v1h0v0h1v0h0v0h0v0h0v0h0v0h0v0h1v0h0v1h0v0h0v0h0v0h0v0h0v0h1v0h0v0h0v0h0v0h0v1h0v0h1v0h0v0h0v0h0v0h0v0h0v0h1v0h0v0h0v1h0v0h1v0h0v0h0v0h0v0h0v0h0v0h0v1h1v0h0v0h0v0h0v0h0v0h0v0h0v0h0v0h1v0h0v1h0v0h0v0h0v0h0v0h0v0h0v0h1v0h0v0h0v0h0v1h0v0h0v0h0v0h0v0h0v0h0v0h1v0h0v0h0v1h0v0h1v0h0v0h0v0h0v0h0v1h0v0h0v0h0v0h0v0h0v0h1v0h0v0h0v0h0v1h0v0h0v0h0v0h1v0h0v0h0v0h0v0h0v0h0v0h0v1h0v0h1v0h0v0h0v0h0v0h0v0h0v0h1v0h0v1h0v0h0v0h0v0h1v0h0v0h0v0h0v0h0v0h1v0h0v1h0v0h0v0h0v0h0v0h1v0h0v0h0v0h0v0h0v0h0v1h0v0h1v0h0v0h0v0h0v0h0v0h0v0h0v0h0v0h1v1h0v0h0v0h0v0h0v0h0v0h0v0h0v0h0v0h0v0h0v1h0v0h1v0h0v0h0v0h0v0h0v0h0v0h0v1h1v0h0v0h0v0h0v0h0v0h0v0h0v0h1v0h0v1h0v0h0v0h0v0h0v0h0v0h1v0h0v0h0v0h0v0h0v1h0v0h1v0h0v0h0v0h0v0h0v0h0v0h0v0h1v0h0v1h0v0h0v0h0v0h0v0h1v0h0v0h0v0h0v0h0v1h1v0h0v0h0v0h0v0h0v0h0v0h0v0h1v0h0v0h0v1h0v0h0v0h0v0h1v0h0v0h0v0h0v0h0v1h0v0h1v0h0v0h0v0h0v0h0v0h0v0h0v0h1v0h0v1h0v0h0v0h0v0h0v0h0v0h1v0h0v0h0v1h0v0h0v0h0v0h0v0h1v0h0v0h0v0h0v0h0v0h0v1h0v0h0v0h1v0h0v0h0v0h0v0h0v0h0v0h0v1h0v0h1v0h0v0h0v0h0v0h0v0h0v0h0v0h0v0h0v1h1v0h0v0h0v0h0v0h0v0h0v0h0v0h0v0h0v0h1v1h0v0h0v0h0v0h0v0h0v0h0v0h0v0h1v0h0v0h0v1h0v0h0v0h0v0h0v0h1v0h0v0h0v0h0v1h0v0h0v0h0v0h1v0h0v0h0v0h0v0h0v0h0v0h1v1h0v0h0v0h0v0h1v0h0v0h0v0h0v0h0v0h1v1h0v0h0v0h0v0h0v0h0v0h0v0h0v0h1v0h0v0h0v1h0v0h0v0h0v0h0v0h1v0h0v0h0v0h0v0h0v1h0v0h1v0h0v0h0v0h0v0h0v0h0v0h0v1h1v0h0v0h0v0h0v0h0v0h0v0h1v0h0v1h0v0h0v0h0v0h0v0h1v0h0v0h0v0h0v1h0v0h0v0h0v0h0v0h1v0h0v0h0v0h0v0h0v1h0v0h0v0h0v0h1v0h0v0h0v0h0v0h0v1h0v0h1v0h0v0h0v0h0v0h0v0h0v0h0v1h1v0h0v0h0v0h0v0h0v0h0v0h1v0h0v1h0v0h0v0h0v0h0v0h1v0h0v0h0v0h0v1h0v0h0v0h0v0h1v0h0v0h0v0h0v1h0v0h0v0h1v0h0v0h0v0h0v0h0v1h0v0h0v0h1v0h0v0h0v0h0v0h0v0h0v1h1v0h0v0h0v0h0v0h0v0h0v0h0v0h1v0h0v1h0v0h0v0h0v0h0v0h0v0h1v0h0v1h0v0h0v0h0v0h0v0h1v0h0v0h0v0h0v0h0v1h0v0h0v0h0v0h1v0h0v0h0v0h0v0h0v0h0v1h1v0h0v0h0v0h0v0h0v0h0v0h1v1h0v0h0v0h0v0h0v0h0v0h0v0h1v0h0v0h0v1h0v0h0v0h0v0h0v0h0v0h1v0h0v0h0v0h0v0h0v1h0v0h0v0h1v0h0v0h0v0h0v0h0v0h0v1h1v0h0v0h0v0h0v0h0v0h1v0h0v0h0v0h0v1h0v0h0v0h1v0h0v0h0v0h0v0h0v0h0v0h0v0h1v1h0v0h0v0h0v0h0v0h0v0h0v0h0v0h1v0h0v0h0v1h0v0h0v0h0v0h0v0h0v0h1v0h0v0h0v0h0v1h0v0h0v0h0v0h0v0h0v0h1v0h0v0h0v0h0v1h0v0h0v0h0v0h0v0h1v0h0v0h0v0h0v0h0v1h0v0h0v0h0v0h1v0h0v0h0v0h0v1h0v0h0v0h1v0h0v0h0v0h0v0h0v0h0v0h0v0h0v1h1v0h0v0h0v0h0v0h0v0h0v0h0v0h0v1h0v0h1v0h0v0h0v0h0v0h0v1h1v0h0v0h0v0h0v0h0v0h0v0h0v0h0v0h0v0h0l1 1h0v0h0v0h0v0h0v0h0v0h0v0h0v0h1v1h0v0h0v0h0v0h0v0h0v0h1v0h0v1h0v0h0v0h0v0h0v0h0v0h0v0h1v0h0v0h0v1h0v0h0v0h0v0h0v0h0v0h1v0h0v0h0v0h0v1h0v0h0v0h0v0h0v0h0v0h1v0h0v0h0v0h0v0h0v1h0v0h0v0h0v0h0v0h1v0h0v0h0v0h0v0h0v0h0v1h0v0h0v0h1v0h0v0h0v0h0v0h0v0h0v0h0v0h0v1h1v0h0v0h0v0h0v0h0v0h1v0h0v0h0v0h0v1h0v0h1v0h0v0h0v0h0v0h0v0h0v0h0v0h0v0h0l1 1h0v0h0v0h0v0h0v0h0v0h0v0h0v0h0v0h0v0h1v1h0v0h0v0h0v0h0v0h0v0h0v0h0v0h0v0h0v0h1v1h0v0h0v0h0v0h0v0h0v0h0v0h0v0h0v0h0v0h0l1 1h0v0h0v0h0v0h0v0h0v0h0v0h0v0h0v0h0v0h0v1h1v0h0v0h0v0h0v0h0v0h0v0h0v0h0v0h0v0h0v1h0v0h1v0h0v0h0v0h0v0h0v0h0v0h0v0h0v1h0v0h0v0h1v0h0v0h0v0h0v0h0v0h0v0h0v0h0v1h0v0h0v0h1v0h0v0h0v0h0v0h0v0h0v0h0v0h0v1h0v0h0v0h1v0h0v0h0v0h0v0h0v0h0v0h0v0h0v1h0v0h1v0h0v0h0v0h0v0h0v0h0v0h0v0h1v1h0v0h0v0h0v0h0v0h0v0h0v0h1v0h0v0h0v0h0v1h0v0h0v0h0v0h1v0h0v0h0v0h0v0h0v1h0v0h1v0h0v0h0v0h0v0h0v0h0v0h0v0h0l1 1h0v0h0v0h0v0h0v0h0v0h0v0h0v0h0v0h1v1h0v0h0v0h0v0h0v0h0v0h0v0h0v0h0v0h1v0h0v1h0v0h0v0h0v0h0v0h0v0h1v0h0v0h0v1h0v0h0v0h0v0h0v0h0v0h0v0h0v0h1v0h0v0h0v1h0v0h0v0h0v0h1v0h0v0h0v0h0v1h0v0h0v0h0v0h0v0h0v0h0v0h1v0h0v0h0v0h0v1h0v0h0v0h0v0h0v0h0v0h0v0h1v0h0v0h0v0h0v1h0v0h0v0h0v0h0v0h0v0h1v0h0v0h0v0h0v1h0v0h0v0h1v0h0v0h0v1h1v1h1v0h0v1h1v1h0v0h0v0h0v0h0v0h1v0h0v0h0v0h0v1h0v0h0v0h0v0h0v0h0v0h0v0h1v0h0v0h0v0h0v1h0v0h0v0h0v0h0v0h0v0h0v0h1v0h0v0h0v0h0v1h0v0h0v0h0v0h0v0h0v0h0v0h1v0h0v0h0v1h0v0h0v0h0v0h0v0h1v0h0v0h0v1h0v0h0v0h0v0h0v0h0v0h0v0h0v0h1v0h0v1h0v0h0v0h0v0h0v0h0v0h0v0h0v0h1v0h0v1h0v0h0v0h0v0h0v0h0v0h0v0h0v0h0v0h1v1h0v0h0v0h0v0h0v0h0v0h0v0h0v0h0v1h0v0h1v0h0v0h0v0h0v0h0v0h0v0h0v0h0v1h0v0h0v0h0v0h0v0h0v0h0v0h0v0h0v0h0v0h0v1h1v0h0v0h0v0h0v0h0v0h0v0h1v0h0v1h0v0h0v0h0v0h1v0h0v0h0v0h0v0h0v0h0v0h0v1h0v0h1v0h0v0h0v0h0v0h0v0h0v0h0v0h0v1h0v0h0v0h0v0h0v0h0v0h1v0h0v0h0v0h0v0h0v1h0v0h0v0h0v0h0v0h0v0h0v0h0v0h0v0h0v1h0v0h1v0h0v0h0v0h0v0h0v0h0v0h0v0h0v0h0v1h0v0h0v0h1v0h0v0h0v0h0v0h0v0h0v0h0v0h0v1h0v0h0v0h1v0h0v0h0v0h0v0h0v0h0v0h0v0h0v1h0v0h0v0h1v0h0v0h0v0h0v0h0v0h0v0h0v1h0v0h1v0h0v0h0v0h0v0h0v0h0v0h0v0h0v0h0v1h1v0h0v0h0v0h0v0h0v0h0v0h0v0h0v1h1v0h0v0h0v0h0v0h0v0h0v0h0v0h1v1h0v0h0v0h0v0h0v0h0v0h0v0h0v0h0v0h0v0h1v1h0v0h0v0h0v0h0v0h0v0h0v0h0v0h0v0h0v0h1v1h0v0h0v0h0v0h0v0h0v0h0v0h0v0h0v0h0v1h0v0h1v0h0v0h0v0h0v0h0v0h0v0h0v0h0v0h0v1h0v0h0v0h0v0h0v0h0v0h0v0h0v0h0v0h0v0h0v1h1v0h0v0h0v0h0v0h0v0h0v0h0v0h0v0h0v1h0v0h0v0h1v0h0v0h0v0h0v0h0v0h0v0h0v0h0v1h0v0h0v0h1v0h0v0h0v0h0v0h0v0h0v0h0v0h0v1h0v0h0v0h1v0h0v0h0v0h0v0h0v0h0v0h0v1h1v0h0v0h0v0h0v0h0v0h0v0h0v0h0l1 1h0v0h0v0h0v0h0v0h0v0h0v0h0v0h0v0h0v0h1v1h0v0h0v0h0v0h0v0h0v0h0v0h0v0h0v0h0v0h1v1h0v0h0v0h0v0h0v0h0v0h0v0h0v0h0v0h0v1h1v0h0v0h0v0h0v0h0v0h0v0h0v0h0v0h0v0h0v1h0v0h0v0h0v0h0v0h0v0h0v0h0v0h0v0h0v0h0v1h1v0h0v0h0v0h0v0h0v0h0v0h0v0h0v0h0v0h0v1h0v0h0v0h0v0h1v0h0v0h0v0h0v0h0v0h0v0h0v1h0v0h0v0h0v0h0v0h0v0h1v0h0v0h0v0h0v1h0v0h0v0h0v0h0v0h0v0h0v0h1v0h0v0h0v1h0v0h0v0h0v0h0v0h0v0h0v0h0v0h0v0h1v0h0v1h0v0h0v0h0v0h0v0h0v0h0v0h0v0h1v1h0v0h0v0h0v0h0v0h0v0h0v0h0v0h0v1h1v0h0v0h0v0h0v0h0v0h0v0h0v0h0v0h0v0h0v1h1v0h0v0h0v0h0v0h0v0h0v0h0v1h0v0h1v0h0v0h0v0h0v0h0v0h0v0h0v0h0v1h0v0h0v0h1v0h0v0h0v0h0v0h0v0h0v0h0v0h0v1h0v0h0v0h0v0h1v0h0v0h0v0h0v0h0v0h0v0h0v1h0v0h0v0h0v0h0v0h1v0h0v0h0v0h0v0h0v1h0v0h0v0h0v0h0v0h0v0h1v0h0v0h0v0h0v1h0v0h0v0h0v0h0v0h0v0h0v0h1v0h0v0h0v1h0v0h0v0h0v0h0v0h0v0h0v0h0v0h0v0h0v0h0v1h1v0h0v0h0v0h0v0h0v0h0v0h0v0h0v0h0v0h0v1h0v0h0v0h0v0h0v0h0v0h1v0h0v0h0v0h0v0h0v1h0v0h0v0h0v0h0v0h0v0h0v0h0v0h0v0h0v0h0v1h0v0h0v0h1v0h0v0h0v0h0v0h0v0h0v0h0v0h0v1h0v0h1v0h0v0h0v0h0v0h0v0h0v0h0v0h0v0h1v1h0v0h0v0h0v0h0v0h0v0h0v0h0v0h0v0h0v1h0v0h0v0h1v0h0v0h0v0h0v0h0v0h0v0h0v0h0v1h0v0h0v0h0v0h0v0h0v0h0v0h0v0h1v0h0v0h0v1h0v0h0v0h0v0h0v0h0v0h0v0h0v0h0v0h0v0h0v1h0v0h0v0h0v0h0v0h1v0h0v0h0v0h0v0h0v0h0v1h0v0h0v0h0v0h0v0h0v0h0v0h0v0h0v0h1v1h0v0h0v0h0v0h0v0h0v0h0v0h0v0h0v0h0v0h0v1h0v0h1v0h0v0h0v0h0v0h0v0h0v0h0v0h0v1h0v0h1v0h0v0h0v0h0v0h0v0h0v0h0v0h0v1h1v0h0v0h0v0h0v0h0v0h0v0h0v0h0v1h1v0h0v0h0v0h0v0h0v0h0v0h0v0h0v0h0v1h0v0h1v0h0v0h0v0h0v0h0v0h0v0h0v0h0v1h0v0h0v0h1v0h0v0h0v0h0v0h0v0h0v1h0v0h0v0h0v0h0v0h1v0h0v0h0v0h0v1h0v0h0v0h0v0h0v0h0v0h0v0h0v0h0v0h1v1h0v0h0v0h0v0h0v0h0v0h0v0h0v0h0v1h0v0h1v0h0v0h0v0h0v0h0v0h0v1h0v0h0v0h0v0h0v0h0v0h1v0h0v0h0v0h0v0h0v1h0v0h0v0h0v0h0v0h0v0h0v0h0v0h0v0h0v0h1v1h0v0h0v0h0v0h0v0h0v0h0v0h0v0h0v0h0v1h0v0h0v0h0v0h1v0h0v0h0v0h0v0h0v1h0v0h0v0h0v0h0v0h0v0h0v0h0v0h1v1h0v0h0v0h0v0h0v0h0v0h0v0h0v0h0v0h0v0h0v1h0v0h0v0h0v0h0v0h1v0h0v0h0v0h0v0h0v0h0v1h0v0h0v0h0v0h0v0h0v0h0v0h0v0h0v0h0v0h0v1h0v0h1v0h0v0h0v0h0v0h0v0h0v0h0v0h0v0h0v1h0v0h0v0h0v0h0v0h0v0h0v0h0v0h0v0h1v1h0v0h0v0h0v0h0v0h0v0h0v0h0v0h0v0h0v0h0v1h0v0h0v0h0v0h0v0h0v0h0v0h0v0h0v0h1v0h0v1h0v0h0v0h0v0h0v0h0v0h0v0h0v0h0v0h0v0h0v1h0v0h0v0h0v0h0v0h0v0h0v0h0v0h1v1h0v0h0v0h0v0h0v0h0v0h0v0h0v0h0v0h0v0h0v1h0v0h0v0h0v0h0v0h0v0h0v0h0v0h0v0h0v1h0v0h0v0h1v0h0v0h0v0h0v0h0v0h0v0h0v0h0v1h0v0h0v0h0v0h0v0h0v0h0v0h0v0h0v0h0v0h0v1h0v0h0v0h0v0h0v0h0v0h0v0h0v0h0v0h1v0h0v1h0v0h0v0h0v0h0v0h0v0h0v0h0v0h0v0h0v0h0v1h0v0h0v0h0v0h0v0h0v0h0v0h0v0h0v0h0v1h0v0h0v0h0v0h0v0h0v0h0v0h0v0h0v0h0v1h0v0h1v0h0v0h0v0h0v0h0v0h0v0h0v0h0v1h0v0h0v0h0v0h0v0h0v0h0v0h0v0h0v0h0v0h0v1h0v0h0v0h0v0h0v0h0v0h0v0h0v0h0v0h0v0h0v1h0v0h0v0h0v0h0v0h0v0h0v0h0v0h0v0h0v0h0v1h0v0h0v0h0v0h0v0h0v0h0v0h0v0h0v0h0v0h0v1h0v0h0v0h0v0h0v0h0v0h0v0h0v0h0v0h0v0h0v1h0v0h0v0h0v0h0v0h0v0h0v0h0v0h0v0h0v0h0v1h0v0h0v0h0v0h0v0h0v0h0v0h0v0h0v0h0v0h0v1h0v0h0v0h0v0h0v0h0v0h0v0h0v0h0v0h0v0h0-1v1h0v0h0v0h0v0h0v0h0v0h0v0h0v0h0v0h0v0h0v1h0v0h0v0h0v0h0v0h0v0h0v0h0v0h0v0h0v0h0v1h0v0h0v0h0v0h0v0h0v0h0v0h0v0h0v0h0v0h0v1h0v0h0v0h0-1 0v0h0v0h0v0h0v0h0v0h0v0h0v0h0v1h0v0h0v0h0v0h0v0h0v0h0v0h0v0h0v0h0v0h0v1h0v0h0v0h0v0h0v0h0v0h0-1 0v0h0v0h0v0h0v0h0v1h0v0h0v0h0v0h0v0h0v0h0v0h0v0h0v0h0v0h0v1h0v0h0v0h0-1 0v0h0v0h0v0h0v0h0v0h0v0h0v0h0v1h0v0h0v0h0v0h0v0h0v0h0-1 0v0h0v0h0v0h0v1h0v0h0v0h0v0h0v0h0v0h0-1 0v0h0v1h0v0h0v0h0v0h0v0h0v0h0-1 0v0h0v0h0v0h0v1h0v0h0v0h0v0h0-1v0h0v0h0v0h0v0h0v0h0v0h0v1h0v0h0-1 0v0h0v0h0v0h0v0h0v0h0v0h0-1 0v0h0v1h0v0h0v0h0v0h0-1 0v0h0v0h0v0h0v0h0v1h0-1 0v0h0v0h0v0h0v0h0v0h0v0h-1 0v0h0v0h0v1h0v0h0v0h0v0h-1 0v0h0v0h0v0h0v0h0-1v0h0v1h0v0h0v0h0v0h0v0h0-1 0v0h0v0h0v0h0v0h0v1h0-1 0v0h0v0h0v0h0v0h0-1 0v0h0v0h0v0h0v1h0v0h0-1 0v0h0v0h0v0h0v0h0-1 0v0h0v0h0v0h0v1h0v0h0v0h0-1 0v0h0v0h0v0h0v0h0v0h0-1 0v0h0v1h0v0h0-1 0v0h0v0h0v0h0v0h0v0h0-1 0v0h0v0h0v1h0v0h0-1 0v0h0v0h0v0h0v0h0v0h0-1 0v0h0v1h0v0h0-1 0v0h0v0h0v0h0v0h0v0h0-1 0v0h0v0h0v0h0v1h0-1 0v0h0v0h0v0h0v0h0-1 0v0h0v0h0v0h0-1 1v0h0v0h0-1 0v0h0v0h0-1 0v0h0v0h0-1 0v1h0v0h0-1 0v0h0v0h0v0h0-1 0v0h0v0h0-1v0h0v0h0-1 0v1h0v0h0v0h0-1 0v0h0-1 0v0h0v0h0-1 0v0h0v0h0v1h0-1 0v0h0v0h0-1v0h0v0h0v0h0-1 0v0h0v0h0-1v0h0v0h0v1h0-1 0v0h0-1 0v0h0v0h0-1 0v0h0v0h0-1 0-1 0v0h0v0h0-1 0v1h0v0h0-1 0v0h0-1 0v0h0-1 0v0h0v0h0-1 0-1 0v0h0-1 0-1 0-1 0v1h0-1 0v0h0-1 0-1v0h0-1 0v0h0-1 0-1 0v0h0-1 0v0h-1 0-1 0-1 0-1 0-1 0-1 0v0h-1 0-1 0-1 0-1 0-1 0-1 0-1 0-1 0-1 0-1 0-1 0-1 0v0h0-1 0-1 0-1 0v0h0-1 0-1 0-1 0v0h0-1 0v-1h0-1 0v0h0-1 0-1 0v0h0v0h0-1 0v0h0v0h0-1 0v0h0v0h0-1 0v-1h0v0h0v0h0-1 0v0h0v0h0-1 0v0h0v0h0v0h0-1 0v0h0v-1h0v0h0-1 0v0h0v0h0v0h0-1 0v0h0v0h0v0h0-1 0v0h0v-1h0v0h0v0h0-1 0v0h0v0h0v0h0v0h0-1 0v0h0v0h0v0h0v-1h0v0h0v0h-1 0v0h0v0h0v0h0v0h0v0h0v0h0-1 0v0h0v-1h0v0h0v0h0v0h0v0h0v0h0v0h0v0h0-1 0v0h0v0h0v-1h0v0h0v0h0v0h0v0h0v0h0-1 0v0h0v0h0v0h0v0h0v-1h0v0h0v0h0v0h0v0h0-1 0v0h0v0h0v0h0v0h0v0h0v-1h0v0h0v0h0v0h0v0h-1 0v0h0v-1h0v0h0v0h0v0h0v0h0v0h0-1 0v0h0v0h0v0h0v0h0v-1h0v0h0v0h0v0h0v0h0v0h0v0h0v0h0v0h0v-1h0v0h0v0h0-1 0v0h0v0h0v0h0v0h0v0h0v0h0v0h0v-1h0v0h0v0h0v0h0v0h0v0h0v0h0v0h0v0h0v-1h0v0h0-1 0v0h0v0h0v0h0v0h0v0h0v0h0v0h0v0h0v-1h0v0h0v0h0v0h0v0h0v0h0v0h0v0h0v0h0v0h0v-1h0v0h0-1 0v0h0v0h0v0h0v0h0v0h0v0h0v0h0v0h0v-1h0v0h0v0h0v0h0v0h0v0h0v0h0v-1h0v0h0v0h-1 0v0h0v0h0v0h0v0h0v0h0v0h0v0h0v-1h0v0h0v0h0v0h0v0h0v0h0v0h0v0h0v-1h0v0h0v0h0v0h0-1v0h0v0h0v0h0v0h0v0h0v-1h0v0h0v0h0v0h0v0h0v0h0v0h0v0h0v0h0v-1h0v0h0v0h0v0h0v0h-1 0v0h0v0h0v0h0v0h0v-1h0v0h0v0h0v0h0v0h0v0h0v0h0v0h0v-1h0v0h0v0h0v0h0v0h0v0h0v0h-1 0v0h0v0h0v-1h0v0h0v0h0v0h0v0h0v0h0v0h0v0h0v-1h0v0h0v0h0v0h0v0h0v0h0v0h0v0h0v0h-1 0v-1h0v0h0v0h0v0h0v0h0v0h0v0h0v-1h0v0h0v0h0v0h0v0h0v0h0v0h0v0h0v0h0v-1h0v0h0-1v0h0v0h0v0h0v0h0v0h0v0h0v0h0v-1h0v0h0v0h0v0h0v0h0v0h0v0h0v0h0v0h0v0h0v-1h0v0h0v0h0-1 0v0h0v0h0v0h0v0h0v-1h0v0h0v0h0v0h0v0h0v0h0v0h0v0h0v-1h0v0h0v0h0v0h0v0h0v0h0v0h0-1 0v0h0v-1h0v0h0v0h0v0h0v0h0v0h0v0h0v0h0v0h0v-1h0v0h0v0h0v0h0v0h0v0h0v0h0v0h-1v-1h0v0h0v0h0v0h0v0h0v0h0v0h0v0h0v-1h0v0h0v0h0v0h0v0h0v0h0v0h0v0h0v-1h0v0h0v0h-1v0h0v0h0v0h0v0h0v0h0v0h0v-1h0v0h0v0h0v0h0v0h0v0h0v0h0v0h0v-1h0v0h0v0h0v0h0v0h0-1v0h0v0h0v0h0v0h0v0h0v-1h0v0h0v0h0v0h0v0h0v0h0v0h0v0h0v-1h0v0h0v0h0v0h0-1 0v0h0v0h0v-1h0v0h0v0h0v0h0v0h0v0h0v0h0v-1h0v0h0v0h0v0h0v0h0v0h0v0h0-1 0v-1h0v0h0v0h0v0h0v0h0v0h0v0h0v0h0v-1h0v0h0v0h0v0h0v0h0v0h0v0h0v0h0v-1h0-1 0v0h0v0h0v0h0v0h0v0h0v0h0v0h0v0h0v-1h0v0h0v0h0v0h0v0h0v0h0v0h0v0h0v0h0v-1h0v0h0v0h0-1 0v0h0v0h0v0h0v0h0v-1h0v0h0v0h0v0h0v0h0v0h0v0h0v0h0v0h0v0h0v-1h0v0h0v0h0v0h-1 0v0h0v0h0v0h0v0h0v0h0v-1h0v0h0v0h0v0h0v0h0v0h0v0h0v0h0v-1h0v0h0v0h0-1 0v0h0v0h0v0h0v-1h0v0h0v0h0v0h0v0h0v0h0v0h0v0h0v0h0v0h0v-1h0v0h0v0h0v0h0v0h0v0h0-1v0h0v0h0v0h0v0h0v-1h0v0h0v0h0v0h0v0h0v0h0v0h0v0h0v-1h0v0h0v0h0v0h0v0h0-1 0v0h0v0h0v-1h0v0h0v0h0v0h0v0h0v0h0v0h0v0h0v0h0v-1h0v0h0v0h0v0h0v0h0v0h0-1v0h0v0h0v0h0v0h0v-1h0v0h0v0h0v0h0v0h0v0h0v0h0v0h0v0h0v-1h0v0h0v0h0-1v0h0v0h0v0h0v0h0v0h0v-1h0v0h0v0h0v0h0v0h0v0h0v0h0v0h0v-1h0v0h0v0h0v0h0-1 0v0h0v0h0v0h0v0h0v-1h0v0h0v0h0v0h0v0h0v0h0v0h0v0h0v0h0v-1h0v0h-1 0v0h0v0h0v0h0v0h0v0h0v0h0v0h0v-1h0v0h0v0h0v0h0v0h0v0h0v0h0v0h0-1 0v0h0v-1h0v0h0v0h0v0h0v0h0v0h0v0h0v0h0v0h0v-1h0v0h0v0h0v0h0v0h0-1 0v0h0v0h0v0h0v0h0v0h0v-1h0v0h0v0h0v0h0v0h0v0h0v0h0-1 0v-1h0v0h0v0h0v0h0v0h0v0h0v0h0v-1h0v0h0v0h0v0h0-1 0v0h0v0h0v0h0v0h0v0h0v-1h0v0h0v0h0v0h0v0h0v0h0v0h0v0h0v0h0-1 0v-1h0v0h0v0h0v0h0v0h0v0h0v0h0v0h0v0h0v0h0v-1h0v0h0v0h0-1 0v0h0v0h0v0h0v0h0v0h0v0h0v-1h0v0h0v0h0v0h0v0h0v0h0-1 0v0h0v0h0v-1h0v0h0v0h0v0h0v0h0v0h0v0h0v0h0v0h0v-1h0v0h0-1v0h0v0h0v0h0v0h0v0h0v0h0v0h0v-1h0v0h0v0h0v0h0v0h0-1v0h0v0h0v0h0v-1h0v0h0v0h0v0h0v0h0v0h0v0h0v0h0v0h0-1v-1h0v0h0v0h0v0h0v0h0v0h0v0h0v0h0v0h0v-1h0v0h0v0h0v0h0-1 0v0h0v0h0v0h0v0h0v-1h0v0h0v0h0v0h0v0h0v0h0v0h0-1 0v0h0v0h0v-1h0v0h0v0h0v0h0v0h0v0h0v0h0v0h0v-1h0-1v0h0v0h0v0h0v0h0v0h0v0h0v0h0v-1h0v0h0v0h0-1 0v0h0v0h0v0h0v0h0v0h0v-1h0v0h0v0h0v0h0v0h0v0h0v0h0v0h0-1v0h0v-1h0v0h0v0h0v0h0v0h0v0h0v0h0v0h0v-1h0-1 0v0h0v0h0v0h0v0h0v0h0v0h0v-1h0v0h0v0h0v0h-1 0v0h0v0h0v0h0v0h0v-1h0v0h0v0h0v0h0v0h0v0h0-1v0h0v-1h0v0h0v0h0v0h0v0h0v0h0v0h0v0h0v-1h0-1 0v0h0v0h0v0h0v0h0v0h0v-1h0v0h0v0h0-1 0v0h0v0h0v0h0v0h0v-1h0v0h0v0h0v0h0v0h0v0h-1 0v0h0v0h0v-1h0v0h0v0h0v0h0v0h0v0h0v0h0v-1h-1 0v0h0v0h0v0h0v0h0v0h0v0h0v0h0v-1h0v0h0v0h-1 0v0h0v0h0v0h0v0h0v0h0v0h0v-1h0v0h0v0h0v0h0v0h0-1 0v0h0v0h0v0h0v-1h0v0h0v0h0v0h0v0h0v0h0v0h0-1 0v-1h0v0h0v0h0v0h0v0h0v0h0v0h0v0h0v-1h0v0h-1 0v0h0v0h0v0h0v0h0v0h0v0h0v-1h0v0h0v0h0v0h0-1v0h0v0h0v0h0v0h0v0h0v0h0v-1h0v0h0v0h0v0h0v0h-1 0v0h0v0h0v0h0v-1h0v0h0v0h0v0h0v0h0v0h-1 0v0h0v-1h0v0h0v0h0v0h0v0h0v0h0v0h0v0h0v0h0v-1h0-1v0h0v0h0v0h0v0h0v0h0v0h0v-1h0v0h0v0h0-1v0h0v0h0v0h0v0h0v0h0v-1h0v0h0v0h0v0h0-1 0v0h0v0h0v0h0v-1h0v0h0v0h0v0h0v0h0v0h-1 0v0h0v0h0v-1h0v0h0v0h0v0h0v0h0v0h0-1 0v0h0v-1h0v0h0v0h0v0h0v0h0v0h0v0h0v0h0-1v-1h0v0h0v0h0v0h0v0h0v0h0v0h0v0h0v-1h0v0h-1 0v0h0v0h0v0h0v0h0v0h0v0h0v-1h0v0h0v0h0-1 0v0h0v0h0v0h0v0h0v-1h0v0h0v0h0v0h0-1v0h0v0h0v0h0v0h0v-1h0v0h0v0h0v0h0v0h0-1 0v0h0v0h0v0h0v-1h0v0h0v0h0v0h0v0h0-1 0v0h0v-1h0v0h0v0h0v0h0v0h0v0h0v0h0-1v0h0v0h0v-1h0v0h0v0h0v0h0v0h0v0h0v0h0-1v0h0v0h0v-1h0v0h0v0h0v0h0v0h-1 0v0h0v-1h0v0h0v0h0v0h0v0h0v0h0v0h0v0h0v0h0-1v0h0v-1h0v0h0v0h0v0h0v0h0v0h-1 0v-1h0v0h0v0h0v0h0v0h0v0h0v0h0v0h0v0h0v0h0-1 0v-1h0v0h0v0h0v0h0v0h0v0h0v0h0v0h0v0h0v0h0-1v-1h0v0h0v0h0v0h0v0h0v0h0v0h0v0h0v0h0v0h0-1v-1h0l-1-1h0v0h0v0h0v0h0-1v-1h0v0h0v0h0v0h0v0h0v0h0v0h0v0h0v0h0v0h0-1 0v-1h0v0h0v0h0v0h0v0h0v0h0v0h0v0h0v0h0v0h-1 0v-1h0v0h0v0h0v0h0v0h0-1 0v-1h0v0h0v0h0v0h0v0h0v0h0v0h0-1 0v0h0v-1h0v0h0v0h0v0h0v0h0v0h0v0h0-1 0v-1h0v0h0v0h0v0h0v0h0v0h0-1 0v0h0v0h0v-1h0v0h0v0h0v0h0-1v0h0v0h0v0h0v-1h0v0h0v0h0v0h0v0h0v0h0v0h-1 0v0h0v-1h0v0h0v0h0v0h0v0h0v0h0-1 0v0h0v0h0v0h0v-1h0v0h0v0h0v0h0-1v0h0v0h0v0h0v0h0v-1h0v0h0-1v0h0v0h0v0h0v0h0v0h0v0h0v-1h0v0h0-1v0h0v0h0v0h0v0h0v0h0v0h0v-1h0-1v0h0v0h0v0h0v0h0v0h0v0h0v0h0v-1h0-1v0h0v0h0v0h0v0h0v0h0v0h0v0h0-1v-1h0v0h0v0h0v0h0v0h0v0h0v0h0-1 0v0h0v-1h0v0h0v0h0v0h0v0h0v0h0v0h-1 0v0h0v-1h0v0h0v0h0v0h0v0h0-1 0v0h0v0h0v0h0v-1h0v0h0v0h0-1 0v0h0v0h0v0h0v-1h0v0h0v0h0v0h-1 0v0h0v0h0v0h0v-1h0-1 0v0h0v0h0v0h0v0h0v0h0v0h0v-1h-1 0v0h0v0h0v0h0v0h0v0h0-1 0v-1h0v0h0v0h0v0h0v0h0v0h0-1 0v-1h0v0h0v0h0v0h0-1v0h0v0h0v0h0v0h0v-1h0v0h0v0h0v0h0v0h-1 0v0h0v0h0v0h0v0h0v-1h0v0h0v0h-1 0v0h0v0h0v0h0v0h0v-1h0-1v0h0v0h0v0h0v0h0-1 0v-1h0v0h0v0h0v0h0v0h0v0h0-1 0v-1h0v0h0v0h0-1 0v0h0v0h0v-1h0-1v0h0v0h0v0h0v-1h0v0h0-1 0v0h0v0h0v0h0v0h0l-1-1h0v0h0v0h0v0h0v0h0-1 0v0h0v-1h0v0h0-1 0v0h0v0h0v0h0v-1h0v0h0-1 0v-1h0-1 0l-1-1h0v0h0v0h0v0h0v0h0v0h-1 0v-1h0v0h0v0h-1 0v-1h0v0h0v0h0-1 0v0h0v0h0v-1h0v0h-1v0h0v0h0v0h0l-1-1h0v0h0v0h0v0h-1v0h0v-1h0v0h0v0h-1 0v0h0v-1h0v0h0-1 0v0h0v-1h0v0h0-1 0v0h0v0h0v0h0l-1-1h0v0h0v0h0-1 0v-1h0v0h0v0h0v0h0-1 0v0h0v-1h0v0h0-1v0h0v0h0v-1h0-1 0v0h0v0h0-1v-1h0v0h0v0h0-1v0h0v-1h0v0h0v0h-1 0v-1h0v0h0-1 0v0h0v-1h0-1v0h0v0h0-1 0v-1h0v0h0v0h0-1 0v-1h0v0h0-1 0v0h0v-1h0v0h0-1 0v0h0v0h0v-1h-1v0h0v0h0v0h-1 0v-1h0-1 0v-1h0-1 0v-1h0-1 0v0h0v0h0l-1-1h0v0h0v0h0-1 0v-1h0-1v0h0v-1h0v0h0-1 0v-1h0-1v0h0v0h0-1v-1h0v0h0-1 0v-1h0-1 0v0h0v-1h0-1 0v0h0v-1h-1 0v0h0-1 0v-1h0v0h0-1 0v-1h0v0h0-1 0v-1h0-1 0v0h0l-1-1h0-1 0v-1h0-1 0v-1h0-1 0v-1h-1 0v0h0-1v-1h0-1 0v-1h0-1 0v-1h0-1 0l-1-1h0-1 0v-1h0-1 0v-1h0-1 0v-1h-1 0-1v-1h0-1 0v-1h0-1 0v-1h0-1 0v-1h-1 0-1 0v-1h0-1 0v-1h0-1 0v-1h0-1 0-1v-1 0h0-1 0v-1h0-1 0v-1h0-1 0v-1h0-1 0l-1-1h0-1 0v-1h0-1 0v-1h0v0h-1 0v-1h0-1 0-1v-1h0v0h0-1 0v-1h0-1 0v-1h0v0h0-1 0v-1h0-1 0v0h0l-1-1h0-1 0v-1h0v0h0-1 0v-1h0-1 0v-1h0-1 0v0h0l-1-1h0-1 0v-1h0-1 0v-1h0v0h0-1 0v-1h0v0h-1 0l-1-1h0-1 0v-1h0v0h0-1 0v-1 0h0-1 0v-1h0-1 0v0h0v-1h0-1 0v0h0-1v-1h0-1 0v-1h0v0h0-1 0v-1h0v0h0-1 0v-1h0-1 0v0h0v-1h-1 0-1 0v-1h0-1 0v-1h0v0h0-1 0v-1 0h0-1 0v-1h0-1 0v0h0v-1h-1 0v0h0-1 0v-1h0v0h0-1 0v0h0v-1h0v0h0-1 0v0-1h0-1 0v0h0v-1 0h0-1 0v0h0v-1h-1 0v0h0v0h0-1v-1h0v0h0-1v0h0v-1h0v0h0-1 0v0h0v-1h0v0h0-1 0v0h0v-1h0-1v0h0v-1h0-1 0v0h0v0h0l-1-1h0v0h0v0h0-1 0v-1h0-1 0v-1 0h0v0h-1 0v0-1h0-1 0v0h0v-1h0-1v0h0v0h0v-1 0h-1 0v0h0l-1-1h0v0h-1 0v-1h0v0h0-1 0v-1h0-1 0v0h0v-1h0v0h0-1 0v0-1h0-1 0v0h0v-1h0-1 0v0h0v0h0l-1-1h0v0h0v0h0v0h-1v-1h0v0h0-1 0v-1h0-1v0h0v-1h0v0h0-1 0v-1 0h0v0h-1 0v0h0v-1 0h0-1 0v0h0v0h0v-1h0-1 0v0h0l-1-1v0h0v0h0v0h0-1v-1h0v0h0-1 0v-1h0v0h0v0h0-1 0v-1h0v0h0v0h-1 0v-1h0v0h0-1 0v0h0v-1 0h0-1v0h0v0h0v-1h0-1v0h0v0h0v-1h0-1v0h0v0h0v-1h-1v0h0-1v-1h0v0h0-1v0-1h0v0h0-1v0h0v-1 0h0v0h0-1v0h0v-1h0v0h0-1v0h0v-1h0v0h0v0h-1 0v-1h0v0h-1 0v0h0v-1h0v0h-1 0v0h0v-1h0-1 0v0h0v0h0l-1-1h0v0h0v0h0-1 0v-1h0v0h0v0h0v0h-1 0v-1h0v0h0v0h0-1 0v-1h0v0h0v0h0-1 0v-1h0v0h0-1 0v0h0v-1 0h0v0h-1 0v0-1h0v0h0-1v0h0v0-1h0v0h-1 0v0h0v-1h0-1 0v0h0v0h0l-1-1v0h0v0h0v0h0-1v-1 0h0v0h0-1v0h0v-1h0v0h0v0h0-1 0v0h0v-1h0v0h0-1v0h0v-1h0v0h0-1 0v0h0v-1h0v0h0-1 0v0h0v-1h0-1 0v0h0v-1h0-1 0v0h0v-1h0-1v0h0v0h0v-1h-1 0v0h0v0h0v0l-1-1h0v0h0v0h0-1v0h0v-1h0v0h0-1v0h0v-1 0h0-1 0v0h0v-1 0h0v0h0-1 0v-1h0v0h0v0h-1 0v0-1h0v0h0v0h-1 0v0-1h0v0h0-1v0h0v0h0v-1h0-1v0h0v0h0v-1h0-1v0h0v0h0v0h0v0h0v-1h-1 0v0h0v0h0l-1-1h0v0h0v0h0-1v-1h0v0h0v0h0v0h-1 0v-1 0h0v0h0-1 0v-1h0v0h0v0h0-1 0v-1h0v0h0v0h0-1 0v-1h0v0h0-1v0h0v0h0v-1 0h0-1v0h0v0h0v0-1h0v0h0-1 0v0h0v-1h0v0h0-1v0h0v-1h0-1v0h0v0h0v0h0v-1h0-1 0v0h0v-1h0-1v0h0v0h0v-1h-1 0v0h0v0h0v0h0l-1-1h0v0h0v0h0v0h0v0h-1v-1h0v0h0-1v0-1h0v0h0v0h0-1 0v-1h0v0h0v0h0v0h0-1v0h0v-1h0v0h0v0h-1 0v0h0v-1h0v0h0v0h0-1 0v0h0v-1h0v0h0v0h0-1v0h0v0h0v-1h0v0h-1 0v0h0v0h0v-1h0v0h0v0h-1 0v0h0v-1h0v0h0-1v0h0v0h0v0h0v-1h0-1 0v0h0v0-1h0v0h0-1v0h0v0h0v0h0v-1h0-1v0h0v0h0v0h0v0h0v0h0v-1 0h-1 0v-1h-1v0h0v0h0v0h0v0h0l-1-1h0v0h0v0h0v0h0-1v-1h0v0h0v0h0v0h0-1v0-1h0v0h0v0h0v0h0v0h0v0h-1v0h0v-1h0v0h-1 0v-1h0v0h0v0h0v0h0v0h0-1 0v-1h0v0h0v0h0v0h-1 0v0h0v0h0v-1h0v0h0-1v0h0v-1h0v0h0v0h0v0h0v0h-1v0h0v-1h0v0h0v0h-1v0h0v0h0v0h0v0h0v0h0v-1h0-1 0v-1h0v0h-1v0h0v0h0v0h0v0h0v0h0v0h0v-1h0v0h0-1 0v0h0v0h0v-1h0v0h0v0h-1v0h0v0h0v0h0v-1h0-1v0h0v0h0v0h0v0h0v0h0v0h0v-1h0-1 0v0h0v0h0v0h0v0h0v0h0v0h0v-1h-1 0v0h0v0h0-1v-1h0v0h0v0h0v0h0v0h0v0h0v0h0-1 0v-1h0v0h0v0h0v0h0v0h0v0h-1 0v0h0v-1h0v0h0v0h0v0h0-1 0v0h0v-1h0v0h0v0h0v0h0v0h0v0h0-1 0v-1h0v0h0v0h0v0h0v0h0-1v0h0v0h0v0h0v-1h0-1 0v0h0v0h0v0h0v-1h0v0h0v0h0v0h0-1 0v0h0v-1h0v0h0v0h0v0h0v0h0-1 0v0h0v0h0v0h0v-1h0v0h0v0h0v0h0-1v0h0v0h0v0h0v0h0v0h0v-1h0v0h0v0h0v0h0-1v0h0v0h0v0h0v0h0v0h0v0h0v-1h0v0h0v0h0-1 0v0h0v0h0v0h0v0h0v-1h0v0h0v0h0-1 0v0h0v0h0v0h0v0h0v-1h0v0h0-1 0v0h0v0h0v0h0v0h0v0h0v0h0v-1h0-1 0v0h0v0h0v0h0v0h0v0h0v0h0v0h0v0h0-1 0v-1h0v0h0v0h0v0h0v0h0v0h0v0h0-1 0v0h0v0h0v0h0v-1h0v0h0v0h0-1 0v0h0v0h0v0h0v0h0v0h0-1 0v0h0v0h0v-1h0v0h0-1 0v0h0v0h0v0h0-1 0v0h0v0h0v0h0-1 0v0h0v-1h0-1 0v0h0v0h0v0h0-1 0v0h0v0h0v0h0v0h0-1 0v0h0v-1h0v0h0-1 0v0h0v0h0v0h0v0h0v0h0v0h0v0h0-1 0v0h0v-1h0v0h0v0h0v0h0v0h0v0h0v0h0v0h0v0h0v0h0-1v-1h0v0h0v0h0v0h0-1 0v0h0v0h0v0h0v1h0v-1h0v0h1v0h0v0h0v0h0v0h0v-1h0v0h0v0h0v0h0v0h0v0h0v0h0v0h0v0h0v0h0v-1h0v0h0v0h1v0h0v0h0v0h0v0h0v0h0v0h0v-1h0v0h0v0h0v0h0v0h0v0h0v0h0v0h0v0h0v0h0v-1h0v0h0v0h0v0h0v0h0v0h0v0h0v0h0v0h0v0h0v-1h0v0h0v0h0v0h0v0h0v0h0v0h0v0h1v0h0v0h0v-1h0v0h0v0h0v0h0v0h0v0h0v0h0v0h0v0h0v-1h0v0h0v0h0v0h0v0h0v0h0v0h0v0h0v0h0v-1h0v0h0v0h0v0h0v0h0v0h0v0h0v0h0v0h0v0h0v-1h0v0h0v0h0v0h0v0h0v0h0v0h0v0h0v0h0v0h0v-1h0v0h0v0h0v0h0v0h0v0h0v0h0v0h1v0h0v0h0v-1h0v0h0v0h0v0h0v0h0v0h0v0h0v0h0v0h0v0h0v-1h0v0h0v0h0v0h0v0h0v0h0v0h0v0h0v0h0v0h0v-1h0v0h0v0h0v0h0v0h0v0h0v0h0v0h0v0h0v0h0v-1h0v0h0v0h0v0h0v0h0v0h0v0h0v0h0v0h0v0h0v-1h0v0h1v0h0v0h0v0h0v0h0v0h0v0h0v0h0v-1h0v0h0v0h0v0h0v0h0v0h0v0h0v0h0v0h0v-1h0v0h0v0h0v0h0v0h0v0h0v0h0v0h0v0h0v0h0v-1h0v0h0v0h0v0h1v0h0v0h0v0h0v0h0v0h0v0h0v-1h0v0h0v0h0v0h0v0h0v0h0v0h0v0h0v0h0v-1h0v0h0v0h0v0h0v0h0v0h0v0h0v0h0v0h0v0h1v-1h0v0h0v0h0v0h0v0h0v0h0v0h0v0h0v0h0v-1h0v0h0v0h0v0h0v0h0v0h0v0h0v0h0v0h0v0h0v-1h0v0h1v0h0v0h0v0h0v0h0v0h0v0h0v-1h0v0h0v0h0v0h0v0h0v0h0v0h0v0h0v0h0v-1h0v0h1v0h0v0h0v0h0v0h0v0h0v0h0v0h0v0h0v-1h0v0h0v0h0v0h0v0h0v0h0v0h0v0h0v0h1v-1h0v0h0v0h0v0h0v0h0v0h0v0h0v0h0v-1h0v0h0v0h0v0h0v0h1v0h0v0h0v0h0v0h0v-1h0v0h0v0h0v0h0v0h0v0h0v0h0v0h0v0h0v0h0v-1h0v0h1v0h0v0h0v0h0v0h0v0h0v0h0v0h0v-1h0v0h0v0h0v0h0v0h0v0h0v0h0v0h1v0h0v0h0v-1h0v0h0v0h0v0h0v0h0v0h0v0h0v0h0v-1h0v0h0v0h1v0h0v0h0v0h0v0h0v0h0v0h0v0h0v-1h0v0h0v0h0v0h0v0h0v0h0v0h0v0h1v0h0v0h0v-1h0v0h0v0h0v0h0v0h0v0h0v0h0v0h0v0h0v0h0v-1h0v0h0v0h1v0h0v0h0v0h0v0h0v0h0v-1h0v0h0v0h0v0h0v0h0v0h1v0h0v0h0v-1h0v0h0v0h0v0h0v0h0v0h0v0h0v-1h0v0h1v0h0v0h0v0h0v0h0v0h0v0h0v0h0v-1h0v0h0v0h0v0h0v0h1v0h0v0h0v0h0v-1h0v0h0v0h0v0h0v0h0v0h0v0h0v-1h1v0h0v0h0v0h0v0h0v0h0v0h0v0h0v-1h0v0h0v0h0v0h1v0h0v0h0v0h0v-1h0v0h0v0h0v0h0v0h0v0h0v0h1v-1h0v0h0v0h0v0h0v0h0v0h0v0h0v0h0v-1h0v0h0v0h1v0h0v0h0v0h0v0h0v0h0v-1h0v0h0v0h0v0h0v0h0v0h0v0h1v0h0v0h0v-1h0v0h0v0h0v0h0v0h0v0h0v0h0v0h0v-1h0v0h1v0h0v0h0v0h0v0h0v0h0v0h0v-1h0v0h0v0h0v0h0v0h1v0h0v0h0v0h0v-1h0v0h0v0h0v0h0v0h0v0h0v0h0v0h1v-1h0v0h0v0h0v0h0v0h0v0h0v0h0v0h0v-1h0v0h0v0h1v0h0v0h0v0h0v0h0v0h0v0h0v0h0v-1h0v0h0v0h0v0h0v0h0v0h0v0h1v0h0v0h0v0h0v-1h0v0h0v0h0v0h0v0h0v0h0v0h0v0h0v0h0v0h0v-1h1v0h0v0h0v0h0v0h0v0h0v0h0v0h0v0h0v0h0v-1h0v0h0v0h0v0h1v0h0v0h0v0h0v0h0v0h0v-1h0v0h0v0h0v0h0v0h0v0h0v0h0v0h1v0h0v0h0v-1h0v0h0v0h0v0h0v0h0v0h0v0h0v0h0v0h0v0h0v-1h0v1h0v0h1v0h0v-1h0v0h0v0h0v0h0v0h0v0h0v0h0v0h1v0h0v0h0v-1h0v0h0v0h0v0h0v0h0v0h0v0h0v0h1v0h0v0h0v-1h0v0h0v0h0v0h0v0h0v0h0v0h1v0h0v-1h0v0h0v0h0v0h0v0h0v0h0v0h0v0h0v0h1v-1h0v0h0v0h0v0h0v0h0v0h0v0h0v0h0v0h0v0h0v-1h1v0h0v0h0v0h0v0h0v0h0v0h0v0h0v0h0v0h0v-1h1v0h0v0h0v0h0v0h0v0h0v0h0v0h0v0h0v0h0v-1h0v0h1v0h0v0h0v0h0v0h0v0h0v0h0-1 0v0h0v0h0v1h0v0h0v0h0v0h0v0h0v0h0v0h0v0h-1 0v0h0v1h0v0h0v0h0v0h0v0h0v0h0v0h0v0h0v0h0-1 0v0h0v1h0v0h0v0h0v0h0v0h0v0h0v0h0v0h0-1 0v1h0v0h0v0h0v0h0v0h0v0h0v0h0v0h0v0h0l-1 1h0v0h0v0h0v0h0v0h0v0h0v0h0v0h0v1h0-1 0v0h0v0h0v0h0v0h0v0h0v0h0v0h0v1h0v0h0-1 0v0h0v0h0v0h0v0h0v0h0v0h0v1h0v0h0v0h0-1 0v0h0v0h0v0h0v0h0v0h0v0h0v0h0v1h0v0h0v0h0v0h0-1 0v0h0v0h0v0h0v0h0v0h0v1h0v0h0v0h0v0h0v0h0-1 0v0h0v0h0v0h0v0h0v1h0v0h0v0h0v0h0v0h0v0h0v0h0-1v0h0v0h0v0h0v1h0v0h0v0h0v0h0v0h0v0h0v0h0v0h0v0h0v0h0-1v1h0v0h0v0h0v0h0v0h0v0h0v0h0v0h0v0h0v0h0v1h0v0h0v0h0v0h0v0h0v0h0v0h0v0h0v0h0v0h0v1h0-1 0v0h0v0h0v0h0v0h0v0h0v0h0v0h0v0h0v1h0v0h0v0h0v0h0v0h0v0h0v0h0v0h-1 0v0h0v0h0v1h0v0h0v0h0v0h0v0h0v0h0v0h0v0h0v0h0v0h0v1h0v0h0v0h0-1 0v0h0v0h0v0h0v0h0v0h0v0h0v1h0v0h0v0h0v0h0v0h0v0h0-1 0v0h0v0h0v0h0v1h0v0h0v0h0v0h0v0h0v0h0v0h0v0h0v1h0v0h-1 0v0h0v0h0v0h0v0h0v0h0v0h0v1h0v0h0v0h0v0h0v0h-1 0v0h0v0h0v0h0v1h0v0h0v0h0v0h0v0h0v0h0v0h0v0h0-1 0v1h0v0h0v0h0v0h0v0h0v0h0v0h0v0h0v1h0v0h0v0h0-1v0h0v0h0v0h0v0h0v0h0v0h0v1h0v0h0v0h0v0h0v0h0v0h0-1 0v0h0v0h0v1h0v0h0v0h0v0h0v0h0v0h0v0h0v0h0v1h0-1 0v0h0v0h0v0h0v0h0v0h0v0h0v0h0v0h0v0h0v1h0v0h0v0h0v0h0v0h-1 0v0h0v0h0v0h0v0h0v1h0v0h0v0h0v0h0v0h0v0h0v0h0-1 0v0h0v1h0v0h0v0h0v0h0v0h0v0h0v0h0v0h0v0h0v1h0v0h0-1 0v0h0v0h0v0h0v0h0v0h0v0h0v0h0v0h0v1h0v0h0v0h0v0h0v0h0v0h0-1 0v0h0v0h0v0h0v0h0v1h0v0h0v0h0v0h0v0h0v0h0v0h0v0h0v0h0v0h0-1 0v1h0v0h0v0h0v0h0v0h0v0h0v0h0v0h0v0h0v0h0v1h0v0h0v0h0-1v0h0v0h0v0h0v0h0v0h0v0h0v0h0v1h0m-179-7h-1v0h0v0h0v0h0v1h0v0h0v0h0-1 0v0h0v0h0v0h0v0h0v0h0v0h0-1 0v0h0v1h0v0h0v0h0v0h0v0h0-1v0h0v0h0v0h0v0h0v0h0v1h0-1 0v0h0v0h0v0h0v0h0-1 0v0h0v0h0v1h0v0h0v0h0v0h0-1 0v0h0v0h0v0h0v0h0-1v1h0v0h0v0h0v0h0v0h0v0h0-1 0v0h0v0h0v1h0v0h0-1 0v0h0v0h0v0h0v0h0v0h0v0h-1 0v0h0v1h0v0h0v0h0v0h0v0h0-1 0v0h0v0h0v0h0v0h0v0h0v1h0-1 0v0h0v0h0v0h0v0h0v0h0v0h-1 0v0h0v0h0v0h0v1h0v0h0-1 0v0h0v0h0v0h0v0h0v0h0-1 0v0h0v0h0v0h0v1h0-1 0v0h0v0h0v0h0v0h0-1 0v0h0v0h0v0h0v0h0v0h0-1 0v1h0v0h0v0h0-1v0h0v0h0v0h0v0h0v0h0-1 0v0h0v1h0v0h0v0h0v0h0-1 0v0h0v0h0v0h0v0h0v0h0-1 0v0h0v1h0v0h0v0h0v0h0-1 0v0h0v0h0v0h0v0h0v0h0-1 0v0h0v1h0v0h0v0h0v0h0-1 0v0h0v0h0v0h0v0h0v0h0-1v0h0v1h0v0h0v0h0v0h0-1 0v0h0v0h0v0h0-1 0v1h0v0h0v0h0v0h0v0h0-1 0v0h0v0h0v0h0v0h0-1 0v1h0v0h0v0h0v0h0v0h0-1 0v0h0v0h0v0h0v1h0-1 0v0h0v0h0v0h0v0h0v0h0v0h0-1 0v0h0v0h0v0h0v1h0v0h0v0h0-1 0v0h0v0h0v0h0v0h0v0h0v0h0v1h0-1 0v0h0v0h0v0h0v0h0v0h0v0h0v0h0v0h0v0h0-1 0v1h0v0h0v0h0v0h0v0h0v0h0v0h0v0h0v0h0v0h0v1h0v0h0v0h0v0h0v0h0v0h0-1 0v0h0v0h0v0h0v0h0v1h0v0h0v0h0v0h0v0h0v0h0-1 0v0h0v0h0v0h0v0h0v1h0-1 0v0h0v0h0v0h0-1v0h0v0h0v0h0-1 0v0h0v0h0-1 0v1h0v0h0v0h0-1 0v0h0-1 0v0h0-1 0v0h0-1 0v0h0v1h0-1 0v0h0v0h0v0h-1 0v0h0-1 0v0h0v0h0v0h0-1 0v0h0v1h0v0h0-1 0v0h0-1 0v0h0v0h0v0h0v0h0-1 0v0h0v1h0v0h0v0h0-1 0v0h0v0h0v0h0v0h0v0h0v0h0-1 0v0h0v1h0v0h0v0h0v0h0v0h0-1 0v0h0v0h0v0h0v0h0v0h0v1h0v0h0v0h0-1 0v0h0v0h0v0h0v0h0v0h0v0h0v0h0v1h0v0h0v0h0-1 0v0h0v0h0v0h0v0h0v0h0v0h0v1h0v0h0v0h0v0h0v0h0v0h0-1 0v0h0v0h0v0h0v0h0v1h0v0h0v0h0v0h0v0h0v0h0v0h0v0h0v0h0v0h0v1h0v0h0-1 0v0h0v0h0v0h0v0h0v0h0v0h0v0h0v1h0v0h0v0h0v0h0v0h0v0h0v0h0v0h0v0h0v1h0v0h0v0h0-1 0v0h0v0h0v0h0v0h0v0h0v0h0v0h0v1h0v0h0v0h0v0h0v0h0v0h0v0h0v0h0v0h0v0h0v1h0v0h0v0h0v0h0v0h0v0h0v0h0v0h0v0h0v1h0v0h0v0h0v0h0v0h0v0h0v0h0v0h0v0h0v0h0v1h0v0h0v0h0v0h0v0h0v0h0v0h0v0h0v0h0v0h0v1h0v0h0v0h0v0h0v0h0v0h0v0h0v0h0v0h0v0h0v1h0v0h0v0h0v0h0v0h0v0h0v0h0v0h0v0h0v0h0v1h0v0h0v0h0v0h0v0h0v0h0v0h0v0h0v0h0v0h0v1h0v0h0v0h0v0h0v0h0v0h0v0h0v0h0v0h0v1h0v0h0v0h0v0h0v0h0v0h0v0h0v0h0v0h0v0h0v1h0v0h0v0h0v0h0v0h0v0h0v0h0v0h0v0h0v1h0v0h0v0h0v0h0v0h1v0h0v0h0v0h0v0h0v0h0v1h0v0h0v0h0v0h0v0h0v0h0v0h0v0h0v0h0v1h0v0h0v0h0v0h0v0h0v0h0v0h0v0h0v0h0v0h0v1h0v0h0v0h0v0h0v0h0v0h0v0h0v0h0v0h0v0h0v1h0v0h0v0h0v0h0v0h1v0h0v0h0v0h0v0h0v0h0v1h0v0h0v0h0v0h0v0h0v0h0v0h0v0h0v1h0v0h0v0h0v0h0v0h0v0h0v0h0v0h0v0h0v0h0v1h0v0h0v0h0v0h0v0h1v0h0v0h0v0h0v1h0v0h0v0h0v0h0v0h0v0h0v0h0v0h0v0h0v1h0v0h0v0h0v0h0v0h0v0h0v0h0v0h0v0h0v1h0v0h0v0h1v0h0v0h0v0h0v0h0v0h0v0h0v1h0v0h0v0h0v0h0v0h0v0h0v0h0v0h0v0h0v0h0v1h0v0h0v0h0v0h0v0h0v0h0v0h0v0h1v0h0v0h0v1h0v0h0v0h0v0h0v0h0v0h0v0h0v0h0v0h0v1h0v0h0v0h0v0h0v0h0v0h0v0h0v0h0v0h0v1h1v0h0v0h0v0h0v0h0v0h0v0h0v0h0v0h0v1h0v0h0v0h0v0h0v0h0v0h0v0h0v0h0v0h0v0h0v1h0v0h0v0h1v0h0v0h0v0h0v0h0v0h0v0h0v0h0v1h0v0h0v0h0v0h0v0h0v0h0v0h0v1h0v0h0v0h0v0h1v0h0v0h0v0h0v0h0v0h0v0h0v1h0v0h0v0h0v0h0v0h0v0h0v0h0v0h0v0h0v0h0v1h0v0h0v0h0v0h1v0h0v0h0v0h0v0h0v0h0v0h0v1h0v0h0v0h0v0h0v0h0v0h0v0h0v0h0v0h0v0h0v1h0v0h0v0h0v0h1v0h0v0h0v0h0v0h0v1h0v0h0v0h0v0h0v0h0v0h0v1h0v0h0v0h1v0h0v0h0v0h0v0h0v0h0v0h0v0h0v1h0v0h0v0h0v0h0v0h0v0h0v0h0v0h0v1h0v0h1v0h0v0h0v0h0v0h0v0h0v0h0v0h0v1h0v0h0v0h0v0h0v0h0v0h0v0h0v0h0v0h0l1 1h0v0h0v0h0v0h0v0h0v0h0v0h0v0h0v0h0v1h0v0h0v0h0v0h0v0h0v0h0v0h0v0h1v0h0v1h0v0h0v0h0v0h0v0h0v0h0v0h0v0h0v1h0v0h0v0h0v0h0v0h0v0h1v0h0v0h0v0h0v1h0v0h0v0h0v0h0v0h0v0h0v0h0v0h0v0h0v1h0v0h0v0h0v0h1v0h0v0h0v0h0v0h0v0h0v0h0v1h0v0h0v0h0v0h0v0h0v0h0v0h0v0h0v0h0l1 1h0v0h0v0h0v0h0v0h0v0h0v0h0v0h0v0h0v0h0v1h0v0h0v0h0v0h0v0h0v0h1v0h0v0h0v0h0v1h0v0h0v0h0v0h0v0h0v0h0v0h0v0h0v0h0v1h0v0h1v0h0v0h0v0h0v0h0v0h0v0h0v0h0v1h0v0h0v0h0v0h0v0h0v0h0v0h0v0h1v0h0v1h0v0h0v0h0v0h0v0h0v0h0v0h0v0h0v1h0v0h0v0h0v0h1v0h0v0h0v0h0v0h0v1h0v0h0v0h0v0h0v0h0v0h0v0h0v0h1v0h0v1h0v0h0v0h0v0h0v0h0v0h0v0h0v0h0v1h0v0h0v0h1v0h0v0h0v0h0v0h0v0h0v0h0v1h0v0h0v0h0v0h0v0h0v0h0v0h0v0h1v0h0v0h0v1h0v0h0v0h0v0h0v0h0v0h0v0h0v0h0v1h0v0h1v0h0v0h0v0h0v0h0v0h0v0h0v0h0v1h0v0h0v0h0v0h0v0h1v0h0v0h0v0h0v0h0v1h0v0h0v0h0v0h0v0h0v0h0v0h0v0h1v0h0v1h0v0h0v0h0v0h0v0h0v0h0v0h0v0h0v0h0v1h0v0h1v0h0v0h0v0h0v0h0v0h0v1h0v0h0v0h0v0h0v0h1v0h0v0h0v0h0v1h0v0h0v0h0v0h0v0h0v0h0v0h0v0h0v0h1v0h0v1h0v0h0v0h0v0h0v0h0v0h0v0h0v0h0v0h0v1h0v0h1v0h0v0h0v0h0v0h0v0h0v0h0v1h0v0h0v0h0v0h1v0h0v0h0v0h0v0h0v0h0v1h0v0h0v0h0v0h0v0h0v0h1v0h0v0h0v1h0v0h0v0h0v0h0v0h0v0h0v0h0v0h1v1h0v0h0v0h0v0h0v0h0v0h0v0h0v0h0v0h0v1h0v0h1v0h0v0h0v0h0v0h0v0h0v0h0v0h0v1h0v0h0v0h0v0h1v0h0v0h0v0h0v0h0v0h0v1h0v0h0v0h0v0h0v0h0v0h1v0h0v0h0v0h0v1h0v0h0v0h0v0h0v0h0v0h0v0h1v0h0v0h0v1h0v0h0v0h0v0h0v0h0v0h0v0h0v0h0v0h1v1h0v0h0v0h0v0h0v0h0v0h0v0h0v0h0v0h0v1h1v0h0v0h0v0h0v0h0v0h0v0h0v0h0v1h0v0h1v0h0v0h0v0h0v0h0v0h0v0h0v1h0v0h0v0h1v0h0v0h0v0h0v0h0v0h0v1h0v0h0v0h0v0h1v0h0v0h0v0h0v0h0v1h0v0h0v0h0v0h0v0h1v0h0v0h0v1h0v0h0v0h0v0h0v0h0v0h1v0h0v0h0v0h0v0h0v1h0v0h0v0h1v0h0v0h0v0h0v0h0v1h0v0h0v0h0v0h0v0h0v0h1v0h0v0h0v0h0v0h0v1h0v0h1v0h0v0h0v1h0v0h0v0h0v0h0v0h0v0h0v0h0v0h1v0h0v0h0v1h0v0h0v0h0v0h0v0h0v0h0v0h0v0h1v0h0v0h0v1h0v0h0v0h0v0h0v0h0v0h0v0h0v0h1v0h0v0h0v1h0v0h0v0h0v0h0v0h0v0h0v0h0v0h1v1h1v1h0v0h1v0h0v0h0v1h0v0h0v0h0v0h0v0h0v0h0v0h0v0h1v0h0v0h0v1h0v0h0v0h0v0h0v0h0v0h0v0h1v0h0v1h0v0h0v0h0v0h0v0h0v0h0v0h1v0h0v0h0v0h0v1h0v0h0v0h0v0h1v0h0v0h0v0h0v0h0v1h0v0h1v0h0v0h0v0h0v0h0v0h0v1h0v0h1v0h0v0h0v0h0v0h0v0h0v1h0v0h0v0h1v0h0v0h0v0h0v0h0v0h0v0h0v1h0v0h1v0h0v0h0v0h0v0h0v0h1v1h0v0h0v0h0v0h0v0h0v0h0v0h0v0h1v0h0v1h0v0h0v0h0v0h0v0h1v0h0v0h0v1h0v0h0v0h0v0h0v0h1v0h0v0h0v0h0v0h0v1h0v0h0v0h1v0h0v0h0v0h0v0h0v1h0v0h1v0h0v0h0v0h0v0h0v0h0v0h0v0h0v0h1v1h0v0h0v0h0v0h0v0h0v0h1v0h0v1h0v0h0v0h0v0h1v0h0v0h0v1h0v0h1v0h0v0h0v0h0v0h0v0h0v0h0v1h1v0h0v0h0v0h0v0h0v0h0v0h1v1h0v0h0v0h0v0h0v0h1v0h0v0h0v0h0v0h0v1h0v0h0v0h0v0h1v0h0v0h0v0h0v0h0v0h0v0h0v1h1v0h0v0h0v0h0v0h0v0h0v0h0v0h1v1h0v0h0v0h1v0h0v0h0v0h0v0h0v1h0v0h1v0h0v0h0v0h0v0h0v0h0v1h1v0h0v0h0v0h0v0h1v0h0v1h0v0h0v0h0v0h0v0h1v0h0v0h0v0h0v0h0v0h0v1h0v0h1v0h0v0h0v0h0v0h0v0h0v0h1v0h0v1h0v0h0v0h0v0h0v0h1v0h0v0h0v1h0v0h1v0h0v0h0v0h0v0h0v0h0v0h1v1h0v0h0v0h1v0h0v0h0v1h0v0h1v0h0v0h0v0h1v1h0v0h0v0h0v0h0v0h1v0h0v0h0v0h0v1h0v0h1v0h0v0h0v0h0v0h0v0h1v1h0v0h0v0h0v0h1v0h0v0h0v0h0v0h0v1h1v0h0v0h0v0h0v0h0v0h1v0h0v1h0v0h0v0h1v0h0v0h0v0h0v0h1v1h0v0h0v0h0v0h0v0h1v0h0v0h0v1h0v0h1v0h0v0h0v0h1v0h0v1h0v0h0v0h1v0h0v0h0v0h0v0h1v0h0v1h0v0h0v0h0v0h1v0h0v0h0l1 1h0v0h0v0h0v0h1v0h0v0h0v1h0v0h1v0h0v0h1v0h0v0h0v0h0v1h0v0h1v0h0v0h0v0h0v0h0v0h1v1h1v0h0v0h0v0h0v0h0v0h1v0h0v0h0v1h0v0h0v0h1v0h0v0h0v0h1v0h0v1h0v0h1v0h0v0h0v0h0v0h1v0h0v0h0v1h0v0h0v0h1v0h0v0h1v0h0v0h0v1h0v0h0v0h1v0h0v0h1v0h0v0h0v1h0v0h1v0h0v0h0v0h1v0h0v0h0v0h0v1h1v0h0v0h0v0h1v0h0v0h0v0h1v1h0v0h0v0h1v0h0v0h0v0h1v0h0v1h0v0h1v0h0v0h1v0h0v0h0v0h1v1h0v0h0v0h1v0h0v0h1v0h0v1h1v0h0v0h0v0h1v0h0v0h1v0h0v1h0v0h0v0h1v0h0v0h1v0h1v1h0v0h0v0h0v0h1v0h0v0h1v0h0l1 1h0v0h1v0h1v0h0v0h1v1h0v0h0v0h1v0h0v0h0v0h1v0h0v0h0v0h1v1h0v0h1v0h0v0h1v0h0v0h1v1h0v0h1v0h1v0h1v0h0v0h0v0h1v1h0v0h1v0h0v0h1v0h1v0h0v0h0v1h1v0h0v0h1v0h0v0h1v0h0v0h1v1h1v0h0v0h1v0h1v0h0v0h1v0h0v0h1v1h1v0h0v0h1v0h0v0h1v0h1v0h1v0h1v0h4v0h1v0h2v0h0v0h0v0h1v0h0v0h0v-1h1v0h0v0h0v0h1v0h0v0h0v0h0v0h0v0h0v-1h0v0h1v0h0v0h0v0h0v0h0v0h0v0h0v0h0v0h0v-1h0v0h1v0h0v0h0v0h0v0h0v0h0v0h0v0h0v0h0v-1h0v0h0v0h0v0h0v0h0v0h0v0h0v0h1v0h0v0h0v-1h0v0h0v0h0v0h0v0h0v0h0v0h0v0h0v0h0v0h0v-1h0v0h0v0h0v0h0v0h0v0h0v0h0v0h0v0h0v0h0v-1h0v0h0v0h1v0h0v0h0v0h0v0h0v0h0v0h0v0h0v-1h0v0h0v0h0v0h0v0h0v0h0v0h0v0h0v0h0v0h0v-1h0v0h0v0h0v0h0v0h0v0h0v0h0v0h0v0h0v0h0v-1h0v0h0v0h0v0h0v0h0v0h0v0h0v0h0v0h0v0h0v-1h0v0h0v0h0v0h0v0h0v0h0v0h0v0h0v0h0v0h0v-1h0v0h0v0h0v0h0v0h0v0h0v0h0v0h0v0h0v0h0v-1h1v0h0v0h0v0h0v0h0v0h0v0h0v0h0v0h0v0h0v-1h0v0h0v0h0v0h0v0h0v0h0v0h0v0h0v0h0v0h0v-1h0v0h0v0h0v0h0v0h0v0h0v0h0v0h0v0h0v0h0v-1h0v0h0v0h0v0h0v0h0v0h0v0h0v0h0v0h0v0h0v-1h0v0h0v0h0v0h0v0h0v0h0v0h0v0h0v0h0v0h0v-1h0v0h0v0h0v0h0v0h0v0h0v0h0v0h0v0h0v0h0v-1h0v0h0v0h0v0h0v0h0v0h0v0h0v0h0v0h0v0h0v-1h0v0h0v0h0v0h0v0h0v0h0v0h0v0h0v0h0v0h0v-1h0v0h0v0h0v0h0v0h0v0h0v0h0v0h0v0h0v0h0v-1h0v0h0v0h0v0h0v0h0v0h0v0h0v0h0v0h0v0h0v-1h0v0h0v0h0v0h0v0h0v0h0v0h0v0h0v0h0v0h0v-1h0v0h0v0h0v0h0v0h0v0h0v0h0v0h0v0h0v0h0v-1h0v0h0v0h0v0h0v0h0v0h0v0h0v0h0v0h0v0h0v-1h0v0h0v0h0v0h0v0h0v0h0v0h0v0h0v0h0v0h0v-1h0v0h0v0h0v0h0v0h0v0h0v0h0v0h0v0h0v0h0v-1h0v0h0v0h0v0h0v0h0v0h0v0h0v0h0v0h0v0h0v-1h0v0h0v0h0v0h0v0h0v0h0v0h0v0h0v0h0v-1h0v0h0v0h0v0h1v0h0v0h0v0h0v0h0v0h0v0h0v-1h0v0h0v0h0v0h0v0h0v0h0v0h0v0h0v0h0v0h0v-1h0v0h0v0h0v0h0v0h0v0h0v0h0v0h0v0h0v0h0v-1h0v0h0v0h0v0h0v0h0v0h1v0h0v0h0v0h0v0h0v-1h0v0h0v0h0v0h0v0h0v0h0v0h0v0h0v0h0v0h0v-1h0v0h0v0h0v0h0v0h0v0h0v0h0v0h0v0h0v0h0v-1h0v0h0v0h0v0h0v0h0v0h0v0h0v0h0v0h0v0h0v-1h0v0h0v0h0v0h0v0h0v0h0v0h0v0h0v0h0v0h0v-1h0v0h0v0h0v0h0v0h0v0h0v0h0v0h0v0h0v0h1v-1h0v0h0v0h0v0h0v0h0v0h0v0h0v0h0v0h0v0h0v-1h0v0h0v0h0v0h0v0h0v0h0v0h0v0h0v0h0v-1h0v0h0v0h0v0h0v0h0v0h0v0h0v0h0v0h0v0h0v-1h0v0h0v0h0v0h0v0h0v0h0v0h0v0h0v0h0v0h0v-1h0v0h0v0h0v0h0v0h0v0h0v0h0v0h0v0h0v0h0v-1h0v0h0v0h0v0h0v0h0v0h0v0h0v0h0v0h0v0h0v-1h0v0h0v0h0v0h0v0h0v0h0v0h0v0h1v0h0v-1h0v0h0v0h0v0h0v0h0v0h0v0h0v0h0v0h0v0h0v-1h0v0h0v0h0v0h0v0h0v0h0v0h0v0h0v0h0v0h0v-1h0v0h0v0h0v0h0v0h0v0h0v0h0v0h0v0h0v-1h0v0h0v0h0v0h0v0h0v0h0v0h0v0h0v0h0v0h0v-1h0v0h0v0h0v0h0v0h0v0h0v0h0v0h0v0h0v-1h0v0h0v0h0v0h0v0h0v0h0v0h0v0h0v0h0v-1h0v0h0v0h0v0h0v0h0v0h0v0h0v0h0v0h0v0h0v-1h0v0h0v0h0v0h1v0h0v0h0v0h0v0h0v0h0v0h0v-1h0v0h0v0h0v0h0v0h0v0h0v0h0v0h0v0h0v0h0v-1h0v0h0v0h0v0h0v0h0v0h0v0h0v0h0v0h0v0h0v-1h0v0h0v0h0v0h0v0h0v0h0v0h0v0h0v0h0v0h0v-1h0v0h0v0h0v0h0v0h0v0h0v0h0v0h0v0h0v-1h0v0h0v0h0v0h0v0h0v0h0v0h0v0h0v0h0v0h0v-1h0v0h0v0h0v0h0v0h0v0h0v0h0v0h0v0h0v0h0v-1h1v0h0v0h0v0h0v0h0v0h0v0h0v0h0v0h0v0h0v-1h0v0h0v0h0v0h0v0h0v0h0v0h0v0h0v0h0v0h0v-1h0v0h0v0h0v0h0v0h0v0h0v0h0v0h0v0h0v0h0v-1h0v0h0v0h0v0h0v0h0v0h0v0h0v0h0v0h0v0h0v-1h0v0h0v0h0v0h0v0h0v0h0v0h0v0h0v0h0v-1h0v0h0v0h0v0h0v0h0v0h0v0h0v0h0v0h1v-1h0v0h0v0h0v0h0v0h0v0h0v0h0v0h0v0h0v0h0v-1h0v0h0v0h0v0h0v0h0v0h0v0h0v0h0v0h0v-1h0v0h0v0h0v0h0v0h0v0h0v0h0v0h0v0h0v0h0v-1h0v0h0v0h0v0h0v0h0v0h0v0h0v0h0v0h0v0h0v-1h0v0h0v0h0v0h0v0h0v0h0v0h0v0h0v0h0l1-1h0v0h0v0h0v0h0v0h0v0h0v0h0v0h0v0h0v0h0v-1h0v0h0v0h0v0h0v0h0v0h0v0h0v0h0v0h0v-1h0v0h0v0h0v0h0v0h0v0h0v0h0v0h0v0h0v-1h0v0h0v0h0v0h0v0h0v0h0v0h0v0h0v-1h0v0h0v0h0v0h0v0h1v0h0v0h0v0h0v0h0v0h0v-1h0v0h0v0h0v0h0v0h0v0h0v0h0v0h0v0h0v0h0v-1h0v0h0v0h0v0h0v0h0v0h0v0h0v0h0v0h0v0h0v-1h0v0h0v0h0v0h0v0h0v0h0v0h0v0h0v0h0v0h0v-1h0v0h0v0h0v0h1v0h0v0h0v0h0v0h0v0h0v0h0v-1h0v0h0v0h0v0h0v0h0v0h0v0h0v0h0v0h0v-1h0v0h0v0h0v0h0v0h0v0h0v0h0v0h0v0h0v-1h0v0h0v0h0v0h0v0h0v0h0v0h0v0h1v0h0v-1h0v0h0v0h0v0h0v0h0v0h0v0h0v0h0v0h0v0h0v-1h0v0h0v0h0v0h0v0h0v0h0v0h0v0h0v0h0v0h0v-1h0v0h0v0h0v0h0v0h0v0h0v0h0v0h0v0h0v-1h0v0h1v0h0v0h0v0h0v0h0v0h0v0h0v-1h0v0h0v0h0v0h0v0h0v0h0v0h0v0h0v0h0v-1h0v0h0v0h0v0h0v0h0v0h0v0h0v0h0v0h0v0h0v-1h0v0h0v0h0v0h0v0h1v0h0v0h0v0h0v0h0v0h0v-1h0v0h0v0h0v0h0v0h0v0h0v0h0v0h0v0h0v0h0v-1h0v0h0v0h0v0h0v0h0v0h0v0h0v0h0v-1h0v0h0v0h0v0h0v0h0v0h1v0h0v0h0v0h0v0h0v-1h0v0h0v0h0v0h0v0h0v0h0v0h0v0h0v0h0v0h0v-1h0v0h0v0h0v0h0v0h0v0h0v0h0v-1h0v0h0v0h0v0h0v0h0v0h0v0h1v0h0v0h0v-1h0v0h0v0h0v0h0v0h0v0h0v0h0v0h0v0h0v0h0v-1h0v0h0v0h0v0h0v0h0v0h0v0h0v0h0v0h0v0h0v-1h0v0h0v0h0v0h0v0h0v0h0v0h1v0h0v0h0v0h0v-1h0v0h0v0h0v0h0v0h0v0h0v0h0v0h0v0h0v0h0v-1h0v0h0v0h0v0h0v0h0v0h0v0h0v0h0v0h0v0h0v-1h0v0h0v0h0v0h0v0h0v0h0v0h1v0h0v0h0v0h0v-1h0v0h0v0h0v0h0v0h0v0h0v0h0v0h0v-1h0v0h0v0h0v0h0v0h0v0h0v0h0v-1h0v0h0v0h0v0h0v0h1v0h0v0h0v0h0v-1h0v0h0v0h0v0h0v0h0v0h0v0h0v0h0v0h0v0h0v-1h0v0h0v0h0v0h0v0h0v0h0v0h0v0h0v0h0v-1h0v0h0v0h0v0h1v0h0v0h0v0h0v-1h0v0h0v0h0v0h0v0h0v0h0v0h0v0h0v0h0v-1h0v0h0v0h0v0h0v0h0v0h0v0h0v0h0v0h0v-1h0v0h0v0h1v0h0v0h0v0h0v0h0v-1h0v0h0v0h0v0h0v0h0v0h0v0h0v0h0v0h0v-1h0v0h0v0h0v0h0v0h0v0h0v0h0v0h0v-1h0v0h0v0h1v0h0v0h0v0h0v0h0v0h0v0h0v0h0v-1h0v0h0v0h0v0h0v0h0v0h0v0h0v-1h0v0h0v0h0v0h0v0h0v0h0v0h0v0h0v0h0v0h0v-1h1v0h0v0h0v0h0v0h0v0h0v0h0v0h0v-1h0v0h0v0h0v0h0v0h0v0h0v0h0v-1h0v0h0v0h0v0h0v0h0v0h0v0h0v0h0v0h0v0h1v-1h0v0h0v0h0v0h0v0h0v0h0v0h0v0h0v0h0v0h0v-1h0v0h0v0h0v0h0v0h0v0h0v0h0v0h0v-1h0v0h0v0h0v0h0v0h0v0h1v0h0v0h0v-1h0v0h0v0h0v0h0v0h0v0h0v0h0v0h0v-1h0v0h0v0h0v0h0v0h0v0h0v0h0v0h0v0h0v0h0v-1h0v0h0v0h0v0h0v0h1v0h0v0h0v0h0v0h0v0h0v-1h0v0h0v0h0v0h0v0h0v0h0v0h0v0h0v-1h0v0h0v0h0v0h0v0h0v0h0v0h0v0h0v0h0v-1h0v0h1v0h0v0h0v0h0v0h0v0h0v0h0v0h0v0h0v-1h0v0h0v0h0v0h0v0h0v0h0v0h0v0h0v0h0v-1h0v0h0v0h0v0h0v0h0v0h0v0h1v0h0v0h0v-1h0v0h0v0h0v0h0v0h0v0h0v0h0v0h0v0h0v0h0v-1h0v0h0v0h0v0h0v0h0v0h0v0h0v0h0v0h0v-1h0v0h0v0h1v0h0v0h0v0h0v0h0v0h0v0h0v-1h0v0h0v0h0v0h0v0h0v0h0v0h0v0h0v-1h0v0h0v0h0v0h0v0h0v0h0v0h0v0h1v0h0v0h0v-1h0v0h0v0h0v0h0v0h0v0h0v0h0v0h0v0h0v-1h0v0h0v0h0v0h0v0h0v0h0v0h0v0h0v-1h0v0h1v0h0v0h0v0h0v0h0v0h0v0h0v0h0v0h0v-1h0v0h0v0h0v0h0v0h0v0h0v0h0v0h0v-1h0v0h0v0h0v0h0v0h1v0h0v0h0v0h0v0h0v0h0v-1h0v0h0v0h0v0h0v0h0v0h0v0h0v0h0v0h0v0h0v-1h0v0h0v0h0v0h0v0h1v0h0v0h0v0h0v0h0v0h0v-1h0v0h0v0h0v0h0v0h0v0h0v0h0v0h0v0h0v-1h0v0h0v0h1v0h0v0h0v0h0v0h0v0h0v0h0v0h0v-1h0v0h0v0h0v0h0v0h0v0h0v0h0v0h0v0h0v0h1v-1h0v0h0v0h0v0h0v0h0v0h0v0h0v0h0v0h0v-1h0v0h0v0h0v0h0v0h1v0h0v0h0v0h0v0h0v0h0v-1h0v0h0v0h0v0h0v0h0v0h0v0h1v0h0v-1h0v0h0v0h0v0h0v0h0v0h0v0h0v0h0v0h0v0h1v-1h0v0h0v0h0v0h0v0h0v0h0v0h0v0h1v0h0v0h0v-1h0v0h0v0h0v0h0-1 0v0h0v1h0v0h0v0h0v0h0-1 0v0h0v0h0v0h0v0h0v0h0v0h0v1h0-1 0v0h0v0h0v0h0v0h0v0h0v0h0v0h0v0h0v0h0-1 0v1h0v0h0v0h0v0h0v0h0v0h0v0h0v0h0v0h0v0h0v1h0v0h0v0h0v0h0v0h0-1 0v0h0v0h0v0h0v0h0v1h0v0h0v0h0v0h0v0h0v0h0v0h0v0h0v0h0v0h0v1h0v0h0v0h0v0h0v0h0-1 0v0h0v0h0v0h0v0h0v0h0v1h0v0h0v0h0v0h0v0h0v0h0v0h0v0h0v0h0v0h0v1h0v0h0v0h0v0h0v0h0v0h0-1 0v0h0v0h0v0h0v1h0v0h0v0h0v0h0v0h0v0h0v0h0v0h0v0h0v1h0v0h0v0h0v0h0v0h0v0h0v0h0v0h0v0h0-1 0v0h0v1h0v0h0v0h0v0h0v0h0v0h0v0h0v0h0v1h0v0h0v0h0v0h0v0h0v0h0v0h0v0h0v1h0v0h0v0h0-1 0v0h0v0h0v0h0v0h0v0h0v0h0v1h0v0h0v0h0v0h0v0h0v0h0v0h0v0h0v0h0v1h0v0h0v0h0v0h0v0h0v0h0-1 0v0h0v0h0v0h0v1h0v0h0v0h0v0h0v0h0v0h0v0h0v0h0v1h0v0h0v0h0v0h0v0h0v0h0v0h0v0h0v0h0-1 0v1h0v0h0v0h0v0h0v0h0v0h0v0h0v0h0v1h0v0h0v0h0M40 269h1v0h0v0h0v1h0v0h0v0h0v0h0v0h0v0h0v0h1v0h0v0h0v0h0v1h0v0h0v0h0v0h0v0h0v0h1v0h0v0h0v0h0v0h0v1h0v0h0v0h0v0h0v0h1v0h0v0h0v0h0v0h0v0h0v1h0v0h0v0h0v0h0v0h1v0h0v0h0v0h0v0h0v1h0v0h0v0h0v0h0v0h0v0h0v0h0v0h0v0h0v0h1v1h0v0h0v0h0v0h0v0h0v0h0v0h0v0h0v0h0v0h0v1h0v0h0v0h0v0h0v0h0v0h0v0h0v0h1v0h0v0h0v1h0v0h0v0h0v0h0v0h0v0h0v0h0v0h0v0h0v1h0v0h0v0h0v0h0v0h0v0h0v0h0v0h0v0h0v0h0v1h0v0h0v0h0v0h1v0h0v0h0v0h0v0h0v0h0v0h0v1h0v0h0v0h0v0h0v0h0v0h0v0h0v0h0v0h0v0h0v1h0v0h0v0h0v0h0v0h0v0h0v0h0v0h0v0h0v0h0v1h0v0h0v0h1v0h0v0h0v0h0v0h0v0h0v0h0v1h0v0h0v0h0v0h0v0h0v0h0v0h0v0h0v0h0v0h0v1h0v0h0v0h0v0h0v0h0v0h1v0h0v0h0v0h0v0h0v1h0v0h0v0h0v0h0v0h0v0h0v0h0v0h0v0h0v0h0l1 1h0v0h0v0h0v0h0v0h0v0h0v0h0v0h0v0h0v1h0v0h1v0h0v0h0v0h0v0h0v0h0v0h0v0h0v1h0v0h0v0h0v0h0v0h0v0h0v0h0v0h0v0h0v0h0v1h1v0h0v0h0v0h0v0h0v0h0v0h0v0h0v0h0v0h0v1h0v0h0v0h0v0h0v0h0v0h0v0h0v0h0v1h0v0h0v0h0v0h0v0h1v0h0v0h0v0h0v0h0v0h0v1h0v0h0v0h0v0h0v0h0v0h0v0h0v0h0v0h0v1h0v0h0v0h0v0h1v0h0v0h0v0h0v0h0v1h0v0h0v0h0v0h0v0h0v0h0v0h0v0h0v0h0v0h0v1h0v0h0v0h0v0h1v0h0v0h0v0h0v0h0v1h0v0h0v0h0v0h0v0h0v0h0v0h0v0h0v0h0v0h0v1h1v0h0v0h0v0h0v0h0v0h0v0h0v0h0v0h0v1h0v0h0v0h0v0h0v0h0v0h0v0h1v0h0v0h0v0h0v1h0v0h0v0h0v0h0v0h0v0h0v0h0v0h0v0h0v1h0v0h0v0h1v0h0v0h0v0h0v0h0v0h0v1h0v0h0v0h0v0h0v0h0v0h0v0h0v0h1v0h0v1h0v0h0v0h0v0h0v0h0v0h0v0h0v0h0v0h0v0h0v1h0v0h0v0h0v0h1v0h0v0h0v0h0v0h0v0h0v0h0v1h0v0h0v0h0v0h0v0h0v0h0v0h1v0h0v1h0v0h0v0h0v0h0v0h0v0h0v0h0v0h0v0h0v0h0v1h0v0h0v0h1v0h0v0h0v0h0v0h0v0h0v1h0v0h0v0h0v0h0v0h0v0h1v0h0v1h0v0h0v0h0v0h0v0h0v0h0v0h0v0h0v1h0v0h1v0h0v0h0v0h0v0h0v0h0v0h0v1h0v0h0v0h0v0h0v0h0v0h0v0h1v0h0v0h0v1h0v0h0v0h0v0h0v0h0v0h0v0h0v0h0v1h0v0h1v0h0v0h0v0h0v0h0v0h0v0h0v0h0v1h0v0h0v0h0v0h1v0h0v0h0v0h0v1h0v0h0v0h0v0h0v0h0v0h0v0h1v0h0v1h0v0h0v0h0v0h0v0h0v0h0v0h0v1h0v0h0v0h0v0h1v0h0v0h0v0h0v0h0v0h0v1h0v0h0v0h0v0h0v0h0v0h1v0h0v0h0v1h0v0h0v0h0v0h0v0h0v0h0v0h0v0h0v0h1v1h0v0h0v0h0v0h0v0h0v0h0v1h0v0h1v0h0v0h0v0h0v0h0v0h0v0h0v1h0v0h0v0h0v0h1v0h0v0h0v0h0v0h0v0h0v1h0v0h0v0h0v0h1v0h0v0h0v0h0v1h0v0h0v0h0v0h0v0h0v0h0v0h1v1h0v0h0v0h0v0h0v0h0v0h0v0h0v0h1v1h0v0h0v0h0v0h0v0h0v0h0v0h0v1h0v0h1v0h0v0h0v0h0v0h0v0h0v1h0v0h1v0h0v0h0v0h0v0h0v0h0v1h0v0h0v0h1v0h0v0h0v0h0v0h0v0h0v1h0v0h0v0h0v0h1v0h0v0h0v0h0v1h0v0h0v0h0v0h0v0h1v0h0v0h0v0h0v1h0v0h0v0h0v0h0v0h1v0h0v0h0v1h0v0h0v0h0v0h0v0h0v0h1v0h0v1h0v0h0v0h0v0h0v0h0v0h0v0h1v1h0v0h0v0h0v0h0v0h0v0h0v0h0v0h0v0h1v1h0v0h0v0h0v0h0v0h0v1h1v0h0v0h0v0h0v0h0v0h0v0h0v0h0v1h1v0h0v0h0v0h0v0h0v0h0v0h0v0h0v0h0v0h0v1h1v0h0v0h0v0h0v0h0v0h0v0h0v1h1v0h0v0h0v0h0v1h1v1h1v0h0v1h1v0h0v0h0v0h0v0h0v0h0v0h0v0h0v1h1v0h0v0h0v0h0v0h0v0h0v0h0v0h0v0h0v0h0l1 1h0v0h0v0h0v0h0v0h1v1h0v0h0v0h0v0h0v0h0v0h0v0h0v0h0v0h0v0h1v1h0v0h0v0h0v0h0v0h0v0h0v0h1v0h0v1h0v0h0v0h0v0h0v0h1v0h0v0h0v1h0v0h0v0h0v0h1v0h0v0h0v0h0v1h0v0h0v0h0v0h0v0h1v0h0v0h0v0h0v0h0v1h0v0h0v0h0v0h1v0h0v0h0v0h0v1h0v0h0v0h1v0h0v0h0v0h0v0h0v1h1v0h0v0h0v0h0v0h0v0h0v0h0v1h1v0h0v0h0v0h0v0h0v0h1v0h0v1h0v0h0v0h0v0h1v0h0v0h0v1h0v0h0v0h0v0h1v0h0v0h0v0h0v1h0v0h1v0h0v0h0v0h0v1h1v0h0v0h0v0h0v0h1v1h0v0h0v0h0v0h0v0h0v0h1v0h0v0h0v1h0v0h0v0h1v0h0v0h0v0h0v0h0v1h0v0h1v0h0v0h0v0h0v0h0v0h0l1 1h0v0h0v0h0v0h0v0h0v0h0v0h1v0h0v1h0v0h1v0h0v0h0v0h0v0h0v1h0v0h1v0h0v0h0v0h0v0h0v0h0v0h1v1h0v0h0v0h0v0h0v0h1v0h0v0h0v0h0v1h0v0h1v0h0v0h0v0h0v1h1v0h0v0h0v0h0v0h0v0h1v0h0v1h0v0h0v0h0v0h1v0h0v0h0v0h0v1h1v0h0v0h0v0h0v0h1v0h0v0h0v1h0v0h0v0h0v0h0v0h1v0h0v0h0v0h0v1h1v0h0v0h0v0h0v0h1v0h0v0h0v1h0v0h1v0h0v0h0v0h0v0h0v1h1v0h0v0h0v0h0v0h0v0h1v0h0v1h0v0h0v0h1v0h0v0h0v0h0v0h1v1h0v0h0v0h1v0h0v1h1v0h0v0h0v0h0v0h1v0h0v0h0v1h0v0h0v0h1v0h0v0h0v0h0v0h1v1h0v0h0v0h0v0h1v0h0v0h0v0h0v1h0v0h1v0h0v0h0v0h0v0h1v0h0v0h0v1h0v0h0v0h1v0h0v0h0v0h0v0h0v0h1v1h0v0h0v0h0v0h1v0h0v0h0v0h0v1h1v0h0v0h0v0h0v0h1v0h0v0h0v0h0v1h0v0h1v0h0v0h0v0h0v0h1v1h0v0h0v0h1v0h0v0h0v0h0v0h1v0h0v1h0v0h1v0h0v0h0v0h0v0h1v0h0v1h0v0h0v0h0v0h1v0h0v0h1v1h0v0h0v0h1v0h0v0h1v0h0v1h0v0h0v0h0v0h1v0h0v0h1v0h0v1h0v0h0v0h1v0h0v0h0v0h0v0h1v1h0v0h1v0h0v0h1v0h0v0h0v1h1v0h0v0h0v0h1v0h0v0h0v0h1v1h0v0h0v0h0v0h1v0h0v0h0v0h1v0h0v0h0v1h1v0h0v0h1v0h0v0h0v0h1v0h0v1h0v0h0v0h1v0h0v0h0v0h1v0h1v1h0v0h0v0h1v0h0v0h1v0h1v0h0v1h1v0h0v0h1v0h0v0h0v0h1v0h0v1h1v0h0v0h1v0h1v0h0v0h1v0h0v1h1v0h0v0h1v0h1v0h0v0h1v0h0v1h1v0h1v0h0v0h1v0h0v0h0v0h1v0h0v0h1v1h0v0h0v0h1v0h0v0h0v0h1v0h1v0h0v0h0v1h1v0h0v0h1v0h0v0h0v0h0v0h1v0h0v1h1v0h0v0h1v0h0v0h0v0h1v1h0v0h0v0h0v0h0v0h1v0h0v0h0v0h0v0h0v1h0v0h0v0h0v0h0v0h1v0h0v0h0v0h0v0h0v0h0v1h0v0h0v0h0v0h0v0h0v0h0v0h1v0h0v0h0v0h0-1 0v1h0m63-110v1h0v0h1v0h0v0h0v0h0v0h0v0h0v0h0v0h0v0h0v1h0v0h1v0h0v0h0v0h0v0h0v0h0v1h1v0h0v0h0v0h0v0h0v0h0v0h0v0h0v0h0v0h0v1h1v0h0v0h0v0h0v0h0v0h0v0h0v0h0v0h0v0h0v1h1v0h0v0h0v0h0v0h0l1 1h0v0h0v0h0v0h0v0h0v0h0v0h0v0h0v0h0v0h1v1h0v0h0v0h0v0h0v0h0v0h0v0h0v0h0v0h0v0h1v1h0v0h1v1h0v0h0v0h0v0h0v0h0v0h0v0h0v0h0v0h1v0h0v1h0v0h0v0h0v0h0v0h0v0h0v0h0v0h0v0h1v0h0v1h0v0h0v0h0v0h1v1h0v0h0v0h0v0h0v0h0v0h0v0h1v0h0v0h0v1h0v0h0v0h0v0h0v0h0v0h0v0h0v0h1v0h0v1h0v0h1v0h0v1h0v0h0v0h0v0h0v0h0v0h1v0h0v0h0v0h0v1h0v0h0v0h0v0h0v0h0v0h0v0h1v0h0v1h1v0h0v0h0v0h0v1h0v0h0v0h0v0h0v0h0v0h1v0h0v0h0v0h0v0h0v1h0v0h1v0h0v0h0v1h0v0h0v0h0v0h0v0h1v0h0v0h0v0h0v0h0v0h0v1h0v0h1v0h0v0h0v1h0v0h0v0h1v0h0v0h0v0h0v0h0v0h0v0h0v0h0v1h0v0h1v0h0v0h0v0h0v0h0v0h0v0h0v0h0v0h0v1h0v0h1v0h0v0h0v0h0v0h0v0h0v1h1v0h0v0h0v0h0v0h0v0h0v0h1v1h0v0h0v0h0v0h0v0h0v0h0v0h1v0h0v1h0v0h0v0h0v0h0v0h0v0h0v0h1v0h0v0h0v1h0v0h0v0h0v0h0v0h0v0h1v0h0v0h0v0h0v1h0v0h0v0h0v0h1v0h0v0h0v0h0v0h0v1h1v0h0v0h0v0h0v0h0v0h1v0h0v0h0v0h0v0h0v1h0v0h0v0h1v0h0v0h0v0h0v0h0v0h0v0h0v0h0v1h0v0h1v0h0v0h0v0h0v0h0v0h0v0h0v1h1v1h1v1h1m-85 1h-1 0v0h0v0h0v1h0v0h0v0h0v0h0v0h0v0h0v0h0v0h0v0h0v0h0v1h0v0h0v0h0v0h0v0h0v0h0v0h0v0h0v0h0v0h0v1h0v0h0v0h0v0h0v0h0-1 0v0h0v0h0v0h0v0h0v0h0v1h0v0h0v0h0v0h0v0h0v0h0v0h0v0h0v0h0v1h0v0h0v0h0v0h0v0h0v0h0v0h0v0h0v0h0v0h0v1h0v0h0v0h0-1 0v0h0v0h0v0h0v0h0v0h0v0h0v0h0v1h0v0h0v0h0l1-1h0m96 1 28 25m5 5 9 8m10 9 6 5m3 3 8 7m11 10 33 27m12 10h1v1h0v0h0v0h0v0h0v0h0v0h0v0h0v0h0v0h1v0h0v1h0v0h0v0h0v0h0v0h0v0h0v0h0v0h1v0h0v0h0v1h0v0h0v0h0v0h0v0h1v0h0v0h0v0h0v1h0v0h0v0h0v0h1v0h0v0h0v0h0v0h0v0h0v1h0v0h0v0h0v0h1v0h0v0h0v0h0v0h0v1h0v0h1v0h0v0h0v0h0v0h0v0h0v0h0v0h1v0h0v1h0v0h0v0h0v0h0v0h1v0h0v0h1v0h0v0h0v0h0v1h0v0h0v0h0v0h0v0h1v0h0v0h0v0h0v0h0v0h0v1h0v0h0v0h0v0h0v0h0v0h0v0h1v0h0v1h0v0h0v0h0v0h0v0h0v0h1v0h0v0h0v0h0v0h0v1h0v0h0v0h1v0h0v0h0v0h0v0h0v0h0v0h0v1h1v0h0v0h0v0h0v0h0v0h0v0h1v0h0v0h0v1h0v0h0v0h0v0h0v0h1v0h0v0h0v0h0v1h1v0h0v0h0v0h0v0h0v0h1v0h0v0h0v1h0v0h0v0h0v0h1v0h0v0h0v0h0v0h0v0h0v1h1v0h0v0h0v0h0v0h0v0h0v0h0v0h1v0h0v1h0v0h0v0h0v0h0v0h0v0h1v0h0v0h0v0h0v0h0v1h0v0h0v0h0v0h1v0h0v0h0v0h0v0h0v1h0v0h0v0h0v0h0v0h0v0h0v0h0v0h1v0h0v0h0v1h0v0h0v0h0v0h0v0h0v0h0v0h1v0h0v0h0v0h0v1h1v0h0v0h0v0h0v0h0v0h1v0h0v0h0v0h0v0h0v1h0v0h0v0h0v0h0v0h1v0h0v0h0v0h0v0h0v0h0v1h0v0h0v0h0v0h0v0h0v0h0v0h0v0h1v0h0v0h0v1h0v0h0v0h0v0h0v0h1v0h0v0h1v0h0v0h0v0h0v1h0v0h0v0h0v0h0v0h0v0h0v0h1v0h0v0h0v0h0v1h0v0h0v0h0v0h0v0h0v0h1v0h0v0h0v1h0v0h0v0h0v0h1v0h0v0h0v0h0v0h0v0h0v0h1v1h0v0h0v0h0v0h0v0h0v0h1v0h0v0h0v0h0v0h0v1h0v0h1v0h0v0h0v0h0v0h0v0h0v0h1v0h0v1h0v0h0v0h0v0h0v0h0v0h1v0h0v0h0v0h0v0h0v1h0v0h0v0h0v0h1v0h0v0h0v0h0v0h0v0h0v1h0v0h0v0h0v0h0v0h0v0h0v0h1v0h0v0h0v0h0v1h0v0h0v0h0v0h0v0h0v0h0v0h0v0h1v0h0v0h0v1h0v0h0v0h0v0h0v0h1v0h0v0h0v0h1v0h0v0h0v1h0v0h0v0h0v0h1v0h0v0h0v0h0v0h0v0h0v0h0v1h1v0h0v0h0v0h0v0h0v0h0v0h0v0h1v0h0v1h0v0h0v0h0v0h0v0h0v0h1v0h0v0h0v0h0v1h0v0h0v0h0v0h1v0h0v0h0v0h0v0h0v1h0v0h0v0h0v0h1v0h0v0h0v0h0v0h0v0h0v1h0v0h1v0h0v0h0v0h0v0h0v0h0v0h0v1h1v0h0v0h0v0h0v0h0v0h0v0h1v0h0v1h0v0h0v0h0v0h0v0h0v0h1v0h0v0h0v0h0v1h0v0h0v0h0v0h0v0h0v0h1v0h0v0h0v0h0v1h0v0h0v0h0v0h1v0h0v0h0v0h0v0h0v0h0v1h1v0h0v0h0v0h0v0h0v0h0v0h0v0h0v0h1v1h0v0h0v0h0v0h0v0h0v0h1v0h0v0h0v0h0v0h0v1h0v0h0v0h1v0h0v0h0v0h0v0h1v0h0v1h0v0h0v0h0v0h1v0h0v0h0v0h0v0h0v0h0v1h1v0h0v0h0v0h0v0h0v0h0v0h0v0h1v0h0v0h0v1h0v0h0v0h0v0h1v0h0v0h0v0h0v0h0v1h0v0h0v0h1v0h0v0h0v0h0v0h0v0h0v0h0v0h1v1h0v0h0v0h0v0h0v0h0v0h0v0h0v0h1v0h0v0h0v1h0v0h0v0h0v0h1v0h0v0h0v0h0v1h0v0h0v0h0v0h1v0h0v0h0v0h0v0h0v1h0v0h0v0h1v0h0v0h0v0h0v0h0v0h0v1h1v0h0v0h0v0h0v0h0v0h0v0h1v0h0v1h0v0h0v0h0v0h0v0h0v0h1v0h0v1h0v0h0v0h0v0h1v0h0v0h0v0h0v1h0v0h0v0h0v0h1v0h0v0h0v0h0v0h0v1h0v0h0v0h1v0h0v0h0v0h0v0h0v0h0v1h1v0h0v0h0v0h0v0h0v0h0v0h1v1h0v0h0v0h0v0h0v0h0v0h1v0h0v1h0v0h0v0h0v0h0v0h0v0h1v0h0v0h0v1h0v0h0v0h0v0h0v0h1v0h0v0h0v0h0v0h0v1h0v0h0v0h1v0h0v0h0v0h0v0h0v0h0v1h0v0h1v0h0v0h0v0h0v0h0v0h0v0h0v1h1v0h0v0h0v0h0v0h0v0h0v0h0v0h0v0h1v1h0v0h0v0h0v0h0v0h0v0h0v0h0v0h1v0h0v0h0v1h0v0h0v0h0v0h0v0h0v0h1v0h0v0h0v1h0v0h0v0h0v0h0v0h1v0h0v0h0v0h0v0h0v1h0v0h0v0h0v0h1v0h0v0h0v0h0v0h0v0h0v1h0v0h1v0h0v0h0v0h0v0h0m10 9 22 22m6 6v1h0v0h0v0h0v0h0v0h0v0h1v0h0v0h0v0h0v0h0v1h0v0h0v0h0v0h0v0h0v0h0v0h0v0h1v0h0v1h0v0h0v0h0v0h0v0h0v0h0v0h0v0h0v0h0v1h0v0h1v0h0v0h0v0h0v0h0v0h0v0h0v0h0v1h0v0h0v0h0v0h0v0h1v0h0v0h0v0h0v1h0v0h0v0h0v0h0v0h0v0h0v0h0v0h1v0h0v1h0v0h0v0h0v0h0v0h0v0h0v0h0v0h0v0h0v1h0v0h1v0h0v0h0v0h0v0h0v0h0v0h0v0h0v1h0v0h0v0h0v0h0v0h1v0h0v0h0v0h0v0h0v1h0v0h0v0h0v0h0v0h0v0h0v0h0v0h1v0h0v0h0v1h0v0h0v0h0v0h0v0h0v0h0v0h0v0h0v0h1v1h0v0h0v0h0v0h0v0h0v0h0v0h0v0h0v0h0v1h0v0h1v0h0v0h0v0h0v0h0v0h0v0h0v0h0v1h0v0h0v0h0v0h0v0h1v0h0v0h0v0h0v0h0v0h0v1h0v0h0v0h0v0h0v0h0v0h0v0h1v0h0v0h0v0h0v1h0v0h0v0h0v0h0v0h0v0h0v0h1v0h0v1h0v0h0v0h0v0h0v0h0v0h1v0h0v0h0v0h0v0h0v1h0v0h0v0h0v0h0v0h1v0h0v0h0v0h0v0h0v0h0v1h0v0h0v0h0v0h0v0h0v0h0v0h0v0h0v0h0v0h0v1h0v0h0v0h0v0h0v0h0v0h0v0h0v0h1v0h0v0h0v1h0v0h0v0h0v0h0v0h0v0h1v0h0v0h0v0h0v0h0v1h0v0h0v0h0v0h0v0h1v0h0v0h0v0h0v0h0v0h0v1h0v0h0v0h0v0h0v0h0v0h0v0h0v0h0v0h0v0h0v1h0v0h0v0h0v0h0v0h0v0h0v0h0v0h1v0h0v0h0v1h0v0h0v0h0v0h0v0h0v0h1v0h0v0h0v0h0v1h0v0h0v0h0v0h0v0h0v0h0v0h0v0h0v0h1v0h0v1h0v0h0v0h0v0h0v0h0v0h0v0h0v0h0v0h0v1h0v0h0v0h0v0h1v0h0v0h0v0h0v0h0v0h0v1h0v0h0v0h0v0h0v0h0v0h0v0h1v0h0v1h0v0h0v0h0v0h0v0h0v0h0v0h0v0h0v0h0v1h0v0h0v0h0v0h1v0h0v0h0v0h0v0h0v0h0v1h0v0h0v0h0v0h0v0h0v0h0v0h0v0h0v0h1v0h0v1h0v0h0v0h0v0h0v0h0v0h0v0h0v0h0v0h0v0h0v1h0v0h0v0h0v0h1v0h0v0h0v0h0v0h0v1h0v0h0v0h0v0h0v0h0v0h0v0h0v0h0v0h0v1h1v0h0v0h0v0h0v0h0v0h0v0h0v0h0v0h0v0h0v1h0v0h0v0h0v0h0v0h0v0h0v0h1v0h0v0h0v0h0v1h0v0h0v0h0v0h0v0h0v0h0v0h0v0h0v0h0v1h0v0h0v0h1v0h0v0h0v0h0v0h0v0h0v0h0v1h0v0h0v0h0v0h0v0h0v0h0v0h1v0h0v1h0v0h0v0h0v0h0v0h0v0h0v0h0v0h0v1h0v0h0v0h0v0h0v0h1v0h0v0h0v0h0v0h0v1h0v0h0v0h0v0h0v0h0v0h0v0h0v0h0v0h0v0h0v1h1v0h0v0h0v0h0v0h0v0h0v0h0v0h0v1h0v0h0v0h0v0h0v0h0v0h1v0h0v0h0v0h0v1h0v0h0v0h0v0h0v0h0v0h0v0h0v0h0v0h0v0h0v1h0v0h0v0h1v0h0v0h0v0h0v0h0v0h0v0h0v0h0v1h0v0h0v0h0v0h0v0h0v0h0v0h0v0h0v0h1v0h0v1h0v0h0v0h0v0h0v0h0v0h0m9 18 4 9m3 7v1h1v0h0v0h0v0h0v0h0v0h0v0h0v0h0v0h0v0h0v1h0v0h0v0h0v0h0v0h0v0h0v0h0v0h0v0h0v0h0v1h0v0h0v0h0v0h0v0h0v0h0v0h0v0h0v0h1v0h0v1h0v0h0v0h0v0h0v0h0v0h0v0h0v0h0v0h0v0h0v1h0v0h0v0h0v0h0v0h0v0h0v0h0v0h0v0h0v0h0v1h0v0h0v0h0v0h0v0h0v0h0v0h1v0h0v0h0v0h0v1h0v0h0v0h0v0h0v0h0v0h0v0h0v0h0v0h0v0h0v1h0v0h0v0h0v0h0v0h0v0h0v0h0v0h0v0h0v1h0v0h0v0h0v0h1v0h0v0h0v0h0v0h0v0h0v0h0v1h0v0h0v0h0v0h0v0h0v0h0v0h0v0h0v0h0v1h0v0h0v0h0v0h0v0h0v0h0v0h0v0h0v0h1v0h0v1h0v0h0v0h0v0h0v0h0v0h0v0h0v0h0v0h0v1h0v0h0v0h0v0h0v0h0v0h0v0h0v0h0v0h0v0h1v1h0v0h0v0h0v0h0v0h0v0h0v0h0v0h0v0h0v0h0v1h0v0h0v0h0v0h0v0h0v0h0v0h1v0h0v0h0v0h0v1h0v0h0v0h0v0h0v0h0v0h0v0h0v0h0v0h1v0h0v1h0v0h0v0h0v0h0v0h0v0h0v0h0v0h0v0h1v0h0v1h0v0h0v0h0v0h0v0h0v0h0v0h0v0h1v0h0v0h0v1h0v0h0v0h0v0h0v0h1v0h0v0h0v0h0v0h0v1h0v0h0v0h0v0h1v0h0v0h0v0h0v0h0v0h0v0h1v1h0v0h0v0h0v0h1v0h0v0h0v0h0v0h1v1h0v0h0v0h1v0h0v0h0v0h0v0h1v0h0v0h0v1h3v1h2"/>
</svg>
