<?xml version="1.0" encoding="utf-8"?>
<svg xmlns="http://www.w3.org/2000/svg" width="24" height="24" viewBox="0 70 745 615">
  <path fill="none" stroke="currentColor" stroke-linecap="round" stroke-linejoin="round" stroke-width="35" d="M 293 208 C 299.333 204.667 306.939 203.061 312 198 C 315.504 194.496 313.889 187.857 317 184 C 322.493 177.189 333.177 174.87 337 167 C 339.658 161.529 338.216 153.385 334 149 C 312.347 126.48 287.482 107.074 262 89 C 258.184 86.293 252.075 85.701 248 88 C 238.137 93.563 233.582 106.969 223 111 C 211.159 115.511 197.143 108.379 185 112 C 180.638 113.301 166.862 123.414 164 132 C 163.851 132.447 165.249 130.6 165 131 C 157.091 143.724 140.681 154.022 141 169 C 141.188 177.855 158.939 183.346 166 178 C 186.359 162.585 196 136.667 211 116 M 199 144 C 195.667 148 192.333 152 189 156 M 180 166 C 174.667 171.333 169.333 176.667 164 182 M 147 188 C 126.667 206 106.333 224 86 242 M 312 199 C 324.667 210.333 339.363 219.743 350 233 C 362.628 248.74 369.751 268.246 381 285 C 385.475 291.665 392.04 296.688 397 303 C 399.402 306.057 400.435 310.079 403 313 C 412.488 323.806 422.568 334.103 433 344 C 435.616 346.482 439.37 347.534 442 350 C 444.773 352.599 446.188 356.443 449 359 C 450.017 359.925 451.938 359.127 453 360 C 467.048 371.551 479.952 384.449 494 396 C 495.062 396.873 496.913 396.159 498 397 C 536.673 426.899 574.327 458.101 613 488 C 614.087 488.841 615.957 488.106 617 489 C 623.085 494.215 627.935 500.762 634 506 C 635.359 507.173 637.677 506.787 639 508 C 641.802 510.568 643.215 514.414 646 517 C 647.969 518.829 651.128 519.072 653 521 C 673.208 541.821 692.933 563.129 712 585 C 715.646 589.182 717.65 594.578 721 599 C 726.424 606.16 762.331 637.981 734 652 C 705.607 666.05 670.718 673.744 640 666 C 623.643 661.876 623.94 636.305 615 622 C 603.926 604.282 591.522 587.43 580 570 C 578.518 567.758 578.034 564.756 576 563 C 524.247 518.319 470.871 475.544 419 431 C 381.198 398.538 343.848 365.541 307 332 C 291.835 318.196 278.754 302.129 263 289 C 258.528 285.273 251.266 285.961 247 282 C 245.455 280.565 248.41 278.024 249 276 C 250.744 270.022 250.746 263.309 254 258 C 263.58 242.369 276.543 229.058 287 214 C 289.151 210.902 281.276 218.993 279 222 C 271.914 231.364 265.667 241.333 259 251 M 80 244 C 65.667 252.333 51.338 260.675 37 269 C 30.671 272.675 13.114 274.552 18 280 C 68.561 336.369 123.338 390.049 185 434 C 192.872 439.611 200.457 421.919 206 414 C 207.912 411.269 205.599 407.309 206 404 C 206.936 396.275 207.964 388.511 210 381 C 217.642 352.803 226.031 324.803 235 297 C 236.054 293.734 238.047 290.822 240 288 C 241.073 286.45 244 285.886 244 284 C 244 282.509 240.747 284.71 240 286 C 236.93 291.304 235.333 297.333 233 303 M 40 269 C 52.333 288 61.507 309.475 77 326 C 128.487 380.92 142.044 379.798 204 405 M 267 295 C 279.667 306.667 292.333 318.333 305 330 M 220 331 C 219.333 333 218.667 335 218 337 M 314 338 C 323.333 346.333 332.667 354.667 342 363 M 347 368 C 350 370.667 353 373.333 356 376 M 366 385 C 368 386.667 370 388.333 372 390 M 375 393 C 377.667 395.333 380.333 397.667 383 400 M 394 410 C 405 419 416 428 427 437 M 439 447 C 469.667 471 500.333 495 531 519 M 541 528 C 548.333 535.333 555.667 542.667 563 550 M 569 556 C 580.667 572.333 592.333 588.667 604 605 M 613 623 C 614.333 626 615.667 629 617 632 M 620 639 C 621 642 620.863 645.669 623 648 C 628.453 653.948 635.667 658 642 663"/>
</svg>