<?xml version="1.0" encoding="utf-8"?>
<svg xmlns="http://www.w3.org/2000/svg" width="24" height="24" viewBox="0 70 745 615">
  <path fill="none" stroke="currentColor" stroke-linecap="round" stroke-linejoin="round" stroke-width="35" d="M 293 208 C 298.589 203.529 307.071 203.189 312 198 C 315.413 194.407 313.889 187.857 317 184 C 322.493 177.189 333.177 174.87 337 167 C 339.658 161.529 337.741 153.796 334 149 C 325.131 137.63 276.681 100.138 262 89 C 258.273 86.172 252.621 87.27 248 88 C 236.815 89.766 231.481 103.497 223 111 C 211.781 120.925 197.827 107.724 185 112 C 177.145 114.618 171.996 122.29 166 128 C 164.921 129.028 164.471 130.586 164 132 C 163.851 132.447 165.368 130.706 165 131 C 162.967 132.626 160.562 133.917 159 136 C 157.477 138.031 157.345 140.847 156 143 C 152.743 148.212 141.376 159.972 141 169 C 140.79 174.04 138.254 182.291 143 184 C 150.455 186.684 159.509 182.544 166 178 C 189.808 161.334 197.803 140.194 211 116 M 199 144 C 195.667 148 192.333 152 189 156 M 180 166 C 174.363 171.011 168.967 176.324 164 182 M 147 188 C 130.043 211.013 109.668 229.166 84 242 C 83.702 242.149 84.684 242.105 85 242 C 86.816 241.395 87.91 240.09 86 242 M 312 199 C 323.041 211.881 339.052 219.424 350 233 C 362.793 248.864 367.847 269.217 381 285 C 381.427 285.512 382.63 284.445 383 285 C 383.555 285.832 382.4 287.2 383 288 C 383.632 288.843 385.342 288.177 386 289 C 386.859 290.073 386.151 291.919 387 293 C 389.912 296.707 394.055 299.319 397 303 C 399.428 306.035 400.435 310.079 403 313 C 412.488 323.806 422.568 334.103 433 344 C 435.616 346.482 439.37 347.534 442 350 C 444.773 352.599 446.188 356.443 449 359 C 450.017 359.925 451.954 359.109 453 360 C 461.076 366.88 467.924 375.12 476 382 C 477.046 382.891 478.915 382.156 480 383 C 485.027 386.91 488.973 392.09 494 396 C 495.085 396.844 496.918 396.153 498 397 C 512.351 408.232 525.615 420.812 540 432 C 543.655 434.843 548.317 436.194 552 439 C 572.746 454.806 591.061 473.896 613 488 C 614.156 488.743 615.957 488.106 617 489 C 623.085 494.215 627.935 500.762 634 506 C 635.359 507.173 637.677 506.787 639 508 C 641.802 510.568 643.215 514.414 646 517 C 647.969 518.829 651.072 519.127 653 521 C 662.812 530.531 671.728 540.943 681 551 C 691.395 562.276 702.093 573.292 712 585 C 716.052 589.789 716.604 593.505 721 599 C 726.172 605.465 733.144 610.673 737 618 C 741.99 627.481 737.649 646.453 734 652 C 726.685 663.118 715.48 662.69 705 664 C 690.961 665.755 657.716 673.972 640 666 C 624.254 658.914 620.971 635.698 615 622 C 606.651 602.847 592.338 586.862 580 570 C 578.413 567.831 577.803 564.993 576 563 C 529.775 511.91 471.545 474.788 419 431 C 380.82 399.183 343.289 365.909 307 332 C 292.016 317.999 278.754 302.129 263 289 C 258.528 285.273 251.266 285.961 247 282 C 245.455 280.565 248.41 278.024 249 276 C 250.744 270.022 251.026 263.471 254 258 C 259.477 247.922 267.458 239.421 274 230 C 274.756 228.912 287 214 287 214 C 287 214 281.263 218.983 279 222 C 274.229 228.361 270.514 235.454 266 242 C 263.842 245.129 261.333 248 259 251 M 80 244 C 69.817 250.789 58.683 256.03 48 262 C 44.206 264.12 41.012 267.328 37 269 C 27.364 273.015 21.713 268.243 18 280 C 13.653 293.765 26.609 310.852 32 321 C 34.098 324.949 35.401 329.361 38 333 C 72.013 380.618 125.084 424.782 185 434 C 199.926 436.296 199.518 431.679 206 414 C 207.148 410.87 205.473 407.291 206 404 C 207.229 396.316 209.226 388.743 210 381 C 211.731 363.69 217.287 346.099 223 330 C 226.914 318.969 230.543 307.823 235 297 C 236.307 293.827 238.047 290.822 240 288 C 241.073 286.45 244 285.886 244 284 C 244 282.509 240.747 284.71 240 286 C 236.93 291.304 235.333 297.333 233 303 M 40 269 C 52.016 290.028 60.693 307.539 77 326 C 101.624 353.876 113.866 361.541 145 381 C 156.933 388.458 170.559 392.774 184 396 C 190.055 397.453 196.181 398.783 202 401 C 203.393 401.531 205.054 403.946 204 405 M 267 295 C 275.808 302.83 283.313 312.037 292 320 C 296.03 323.694 301.134 326.134 305 330 M 220 331 C 219.333 333 218.667 335 218 337 M 314 338 C 323.333 346.333 332.667 354.667 342 363 M 347 368 C 350 370.667 353 373.333 356 376 M 366 385 C 368 386.667 370 388.333 372 390 M 375 393 C 377.667 395.333 380.333 397.667 383 400 M 394 410 C 405 419 416 428 427 437 M 439 447 C 445.491 453.491 453.936 457.525 461 463 C 472.976 472.281 483.991 482.762 496 492 C 508.112 501.317 520.091 508.091 531 519 M 541 528 C 548.333 535.333 555.667 542.667 563 550 M 569 556 C 581.941 571.817 592.436 588.48 604 605 M 613 623 C 614.333 626 615.667 629 617 632 M 620 639 C 621.754 641.631 620.819 645.71 623 648 C 628.565 653.843 635.667 658 642 663"/>
</svg>